<svg id="Layer_1" data-name="Layer 1" xmlns="http://www.w3.org/2000/svg" viewBox="0 0 24 24"><defs><style>.cls-1{fill:#003466;}.cls-2{fill:#66b49a;}.cls-3{fill:#b2c336;}.cls-4{fill:#3e9ab1;}</style></defs><title>11</title><path class="cls-1" d="M18.93.92a1,1,0,0,0-.05,1.32,12,12,0,0,1-.58,16.25l0,0A12,12,0,0,1,2,19.14a1,1,0,0,0-1.32.05h0a1,1,0,0,0,0,1.38s0,0,0,.05a14,14,0,0,0,19-.7l0,0A14,14,0,0,0,20.37,1,1,1,0,0,0,19,.86l0,.05Z"/><path class="cls-2" d="M9.83,1h0a1,1,0,0,0,.88,1,8.15,8.15,0,0,1,4.88,13.83l0,0a8.17,8.17,0,0,1-4.85,2.34,1,1,0,0,0-.88,1h0a1,1,0,0,0,1,1h.1a10.1,10.1,0,0,0,6-2.9l0,0A10.12,10.12,0,0,0,10.9,0,1,1,0,0,0,9.83.88Z"/><path class="cls-3" d="M9.83,3.58A6.49,6.49,0,0,0,5.24,5.44l0,0a6.36,6.36,0,0,0-1.79,3.4A1,1,0,0,0,4.2,10a.55.55,0,0,0,.18,0h0a1,1,0,0,0,1-.8A4.51,4.51,0,0,1,6.59,6.87l0,0a4.51,4.51,0,0,1,7.6,2.4,1,1,0,0,0,1,.8h0a1,1,0,0,0,1-1,1.09,1.09,0,0,0,0-.18,6.49,6.49,0,0,0-6.34-5.3Z"/><path class="cls-4" d="M11.62,11.43a1,1,0,0,0-1-.26,1,1,0,0,1-.35.06,1.17,1.17,0,0,1-.83-.3l0,0a1.16,1.16,0,0,1-.35-.8,1.74,1.74,0,0,1,0-.39,1,1,0,0,0-.23-1h0a1,1,0,0,0-1.38,0,1,1,0,0,0-.24.39A3.12,3.12,0,0,0,8,12.27l0,0a3.21,3.21,0,0,0,3.18.73,1,1,0,0,0,.61-1.24.89.89,0,0,0-.23-.38Z"/></svg>