<svg id="Layer_1" data-name="Layer 1" xmlns="http://www.w3.org/2000/svg" viewBox="0 0 680 284"><defs><style>.cls-1{fill:#3e9ab1;}.cls-2{fill:#003466;}.cls-3{fill:#66b49a;}.cls-4{fill:#b2c336;}</style></defs><title>22</title><path class="cls-1" d="M548,184.19v28.55a3.83,3.83,0,0,1-.34,1.62,4.07,4.07,0,0,1-.89,1.29,4.32,4.32,0,0,1-1.33.87,4.27,4.27,0,0,1-1.63.32,4.14,4.14,0,0,1-1.62-.32,4.22,4.22,0,0,1-1.31-.87,3.75,3.75,0,0,1-.88-1.29,4,4,0,0,1-.32-1.62V184.19h-8.42a4,4,0,0,1-1.62-.33,4.63,4.63,0,0,1-1.31-.9,4.06,4.06,0,0,1-.88-1.33,4.23,4.23,0,0,1-.32-1.63,4.1,4.1,0,0,1,1.2-2.93,4.37,4.37,0,0,1,1.31-.88,4.18,4.18,0,0,1,1.62-.32h25.16a3.81,3.81,0,0,1,1.61.34,4.5,4.5,0,0,1,1.33.89,4.22,4.22,0,0,1,.9,1.33,4.27,4.27,0,0,1,.32,1.63,4.11,4.11,0,0,1-2.55,3.81,4,4,0,0,1-1.61.32Z"/><path class="cls-1" d="M570.52,216.84a4.37,4.37,0,0,1-2.74-1.28,3.84,3.84,0,0,1-1.1-2.82V180a4,4,0,0,1,.32-1.61,4.26,4.26,0,0,1,.87-1.33,4.06,4.06,0,0,1,1.33-.9,4.32,4.32,0,0,1,1.64-.32h21.53a4.14,4.14,0,0,1,1.62.32,3.94,3.94,0,0,1,1.3.9,4.41,4.41,0,0,1,.86,1.33,4.24,4.24,0,0,1,0,3.23,4.54,4.54,0,0,1-.86,1.33,3.91,3.91,0,0,1-1.3.89,4,4,0,0,1-1.62.32H575v7.43h13.82a3.66,3.66,0,0,1,1.62.3,4.69,4.69,0,0,1,1.33.91,4.17,4.17,0,0,1,.89,1.36,4.44,4.44,0,0,1,.32,1.65,4,4,0,0,1-1.21,2.9,4.23,4.23,0,0,1-2.95,1.17H575v8.61h17.37a4,4,0,0,1,1.62.33,4.29,4.29,0,0,1,1.3.91,4.51,4.51,0,0,1,.86,1.35,4.23,4.23,0,0,1,.32,1.63,4.14,4.14,0,0,1-.32,1.62,4.2,4.2,0,0,1-.86,1.31,4,4,0,0,1-1.3.88,3.8,3.8,0,0,1-1.62.29Z"/><path class="cls-1" d="M634.24,181.73a3.58,3.58,0,0,1,.89,1.33,4.21,4.21,0,0,1,0,3.07,4,4,0,0,1-.89,1.36,4,4,0,0,1-1.38.91,4.54,4.54,0,0,1-1.57.32,4.26,4.26,0,0,1-1.57-.27,3.72,3.72,0,0,1-1.34-.86,12.17,12.17,0,0,0-4.18-2.79,12.84,12.84,0,0,0-4.75-.89,12,12,0,0,0-4.75,1,12.6,12.6,0,0,0-6.68,6.61,12.29,12.29,0,0,0-1,4.92,12.63,12.63,0,0,0,3.51,8.75,12.77,12.77,0,0,0,3.9,2.74,12.07,12.07,0,0,0,4.88,1.05,12.21,12.21,0,0,0,4.72-.85,12.81,12.81,0,0,0,4.24-2.83,3.82,3.82,0,0,1,1.35-.85,4.67,4.67,0,0,1,3.13,0,3.69,3.69,0,0,1,2.26,2.2,4.24,4.24,0,0,1,.3,1.56,4.44,4.44,0,0,1-.28,1.57,3.87,3.87,0,0,1-.87,1.35,20.82,20.82,0,0,1-14.88,6.17,19.7,19.7,0,0,1-8-1.63,20.8,20.8,0,0,1-6.54-4.46,21.32,21.32,0,0,1-4.44-6.63,21,21,0,0,1,1.08-18.35,21,21,0,0,1,3.15-4.26,20.43,20.43,0,0,1,4.16-3.36,20.21,20.21,0,0,1,5-2.19,20.76,20.76,0,0,1,5.73-.79,21,21,0,0,1,7.84,1.52A20.58,20.58,0,0,1,634.24,181.73Z"/><path class="cls-1" d="M651.87,192.26h19.81V180a4,4,0,0,1,1.25-2.91,4.36,4.36,0,0,1,1.34-.87,4.27,4.27,0,0,1,1.63-.32,4.1,4.1,0,0,1,2.92,1.19,4,4,0,0,1,.86,1.29A4.14,4.14,0,0,1,680,180v32.77a4.14,4.14,0,0,1-.32,1.62,3.66,3.66,0,0,1-.9,1.29,4.39,4.39,0,0,1-1.32.87,4.26,4.26,0,0,1-3.24,0,4.39,4.39,0,0,1-1.32-.87,3.66,3.66,0,0,1-.9-1.29,4.14,4.14,0,0,1-.32-1.62V200.58H651.87v12.16a4.14,4.14,0,0,1-.32,1.62,3.66,3.66,0,0,1-.9,1.29,4.32,4.32,0,0,1-1.33.87,4.24,4.24,0,0,1-3.23,0,4.57,4.57,0,0,1-1.33-.87,3.77,3.77,0,0,1-.89-1.29,4,4,0,0,1-.32-1.62V180a4,4,0,0,1,.32-1.62,3.77,3.77,0,0,1,.89-1.29,4.57,4.57,0,0,1,1.33-.87,4.24,4.24,0,0,1,3.23,0,4.32,4.32,0,0,1,1.33.87,3.66,3.66,0,0,1,.9,1.29,4.14,4.14,0,0,1,.32,1.62Z"/><path class="cls-1" d="M331.54,115.16V127q-12.71,0-17.19-7a19.2,19.2,0,0,1-7.24,5.2,25.31,25.31,0,0,1-10,1.84H275.72a36.69,36.69,0,0,1-13.79-2.56,23.75,23.75,0,0,1-10.24-7.64,19.72,19.72,0,0,1-3.88-12.36,34.85,34.85,0,0,1,2.4-11.83h11.28a30.63,30.63,0,0,0-1.52,8.72q0,6.56,4,10.19t11.71,3.64h21.43q5.28,0,7.64-2.4t2.36-7.84V68.3h12.08v36.62a10.17,10.17,0,0,0,2.56,7.28Q324.75,115.17,331.54,115.16ZM294.6,94.77H272.44V88.05h2.48a8,8,0,0,1-2.48-6.24,9.73,9.73,0,0,1,3.6-7.87,13.41,13.41,0,0,1,8.88-3,18,18,0,0,1,8,1.92l-3.28,6.39a11.47,11.47,0,0,0-4.08-.88,6.17,6.17,0,0,0-3.8,1.12,4,4,0,0,0-1.48,3.36,4.74,4.74,0,0,0,1.64,3.8,6.25,6.25,0,0,0,4.2,1.4h8.48Z"/><path class="cls-1" d="M341.54,88.61h12.08V127H331.54a6.37,6.37,0,0,1-4.56-1.76,5.75,5.75,0,0,1-1.83-4.32,5.36,5.36,0,0,1,1.75-4.16,6.67,6.67,0,0,1,4.64-1.6h10Zm-6.88-9.2a6.76,6.76,0,1,1,4.8,2A6.55,6.55,0,0,1,334.66,79.41Zm15.92,0a6.75,6.75,0,1,1,4.79,2A6.51,6.51,0,0,1,350.58,79.41Z"/><path class="cls-2" d="M260.12,184.19v28.55a3.83,3.83,0,0,1-.34,1.62,3.94,3.94,0,0,1-.9,1.29,4.16,4.16,0,0,1-1.32.87,4.32,4.32,0,0,1-1.64.32,4.13,4.13,0,0,1-1.61-.32,4.22,4.22,0,0,1-1.31-.87,3.75,3.75,0,0,1-.88-1.29,4,4,0,0,1-.32-1.62V184.19h-8.42a4,4,0,0,1-1.62-.33,4.49,4.49,0,0,1-1.31-.9,4.06,4.06,0,0,1-.88-1.33,4.23,4.23,0,0,1-.32-1.63,4.1,4.1,0,0,1,1.2-2.93,4.25,4.25,0,0,1,1.31-.88,4.14,4.14,0,0,1,1.62-.32h25.15a3.83,3.83,0,0,1,1.62.34,4.63,4.63,0,0,1,1.33.89,4,4,0,0,1,.89,1.33,4.09,4.09,0,0,1,.32,1.63,4.05,4.05,0,0,1-1.21,2.93,4.22,4.22,0,0,1-1.33.88,4,4,0,0,1-1.62.32Z"/><path class="cls-2" d="M297.94,209.8H281l-1.85,4.54a4,4,0,0,1-1,1.39,3.93,3.93,0,0,1-1.36.83,4.34,4.34,0,0,1-1.62.26,4.14,4.14,0,0,1-1.66-.37,3.84,3.84,0,0,1-1.38-.94,3.67,3.67,0,0,1-.78-1.33,4.21,4.21,0,0,1-.2-1.55,5.3,5.3,0,0,1,.4-1.65l14.05-32.58a4.38,4.38,0,0,1,1.52-1.87,4.2,4.2,0,0,1,4.52,0,4.13,4.13,0,0,1,1.52,1.84L307.32,211a4.49,4.49,0,0,1,.4,1.62,4.43,4.43,0,0,1-.17,1.55,3.53,3.53,0,0,1-.76,1.34,3.58,3.58,0,0,1-1.32,1,4.16,4.16,0,0,1-1.64.37,4.38,4.38,0,0,1-1.6-.27,4.15,4.15,0,0,1-1.37-.85,4.26,4.26,0,0,1-1-1.36Zm-13.6-8.33h10.18l-5.06-12.28Z"/><path class="cls-2" d="M313.85,180a4.13,4.13,0,0,1,.32-1.61,4,4,0,0,1,.9-1.33,4.13,4.13,0,0,1,1.32-.9,4.18,4.18,0,0,1,1.62-.32h11.71a16.11,16.11,0,0,1,6.07,1.15,15.22,15.22,0,0,1,8.29,8,14.64,14.64,0,0,1,1.23,6,15.2,15.2,0,0,1-.53,4,14.17,14.17,0,0,1-1.52,3.57,15.26,15.26,0,0,1-2.37,3,15.43,15.43,0,0,1-3,2.35l5,5.73a4.17,4.17,0,0,1,.92,1.38,4.25,4.25,0,0,1,.3,1.57,4.15,4.15,0,0,1-.3,1.55,4.2,4.2,0,0,1-.92,1.36,3.92,3.92,0,0,1-2.75,1.25,3.7,3.7,0,0,1-2.75-1.19l-8.48-9.5h-6.66v6.59a4.14,4.14,0,0,1-.32,1.62,3.77,3.77,0,0,1-.89,1.29,4.57,4.57,0,0,1-1.33.87,4.26,4.26,0,0,1-3.24,0,4.39,4.39,0,0,1-1.32-.87,3.66,3.66,0,0,1-.9-1.29,4.14,4.14,0,0,1-.32-1.62Zm8.32,4.16v13.64h7.68a7.26,7.26,0,0,0,2.74-.53,7.19,7.19,0,0,0,2.27-1.46,7.08,7.08,0,0,0,1.55-2.16A6.06,6.06,0,0,0,337,191a6.29,6.29,0,0,0-.59-2.69,7.4,7.4,0,0,0-1.57-2.17,7.26,7.26,0,0,0-5-2Z"/><path class="cls-2" d="M393.06,212.74a4.14,4.14,0,0,1-.32,1.62,3.8,3.8,0,0,1-.9,1.29,4.32,4.32,0,0,1-1.33.87,4.24,4.24,0,0,1-3.23,0,4.22,4.22,0,0,1-1.31-.87,4.27,4.27,0,0,1-.9-1.29,4,4,0,0,1-.33-1.62V192l-8.36,11.1a4.11,4.11,0,0,1-.73,1l-.23.22a.89.89,0,0,1-.22.16l-.19.16-.45.29a3.34,3.34,0,0,1-2.24.4,3.74,3.74,0,0,1-2.05-1.2,3.1,3.1,0,0,1-.43-.47c-.12-.16-.23-.32-.34-.49l-8.41-11.17v20.8a4.14,4.14,0,0,1-.32,1.62,3.94,3.94,0,0,1-.9,1.29,4.44,4.44,0,0,1-1.33.87,4.24,4.24,0,0,1-3.23,0,4.57,4.57,0,0,1-1.33-.87,3.77,3.77,0,0,1-.89-1.29,4,4,0,0,1-.32-1.62V180a4.08,4.08,0,0,1,.27-1.47,4,4,0,0,1,.75-1.24,4.44,4.44,0,0,1,1.12-.89,3.79,3.79,0,0,1,1.41-.47,4.73,4.73,0,0,1,2.08.16,3.28,3.28,0,0,1,1.66,1.16L373,194.37l12.8-17.06a3.42,3.42,0,0,1,2.5-1.37,1.64,1.64,0,0,1,.32-.05l.32,0a4.13,4.13,0,0,1,1.61.32,4.32,4.32,0,0,1,1.33.87,3.8,3.8,0,0,1,.9,1.29,4.14,4.14,0,0,1,.32,1.62Z"/><path class="cls-2" d="M406.53,216.84a4.32,4.32,0,0,1-2.73-1.28,3.85,3.85,0,0,1-1.11-2.82V180a4.13,4.13,0,0,1,.32-1.61,4.28,4.28,0,0,1,.88-1.33,4,4,0,0,1,1.33-.9,4.27,4.27,0,0,1,1.63-.32h21.54a4.18,4.18,0,0,1,1.62.32,3.8,3.8,0,0,1,1.29.9,4.64,4.64,0,0,1,.87,1.33,4.24,4.24,0,0,1,0,3.23,4.78,4.78,0,0,1-.87,1.33,3.77,3.77,0,0,1-1.29.89,4,4,0,0,1-1.62.32H411v7.43h13.83a3.64,3.64,0,0,1,1.61.3,4.55,4.55,0,0,1,1.33.91,4.19,4.19,0,0,1,.9,1.36,4.44,4.44,0,0,1,.32,1.65,4,4,0,0,1-1.22,2.9,4.06,4.06,0,0,1-1.33.86,4.12,4.12,0,0,1-1.61.31H411v8.61h17.38a4,4,0,0,1,1.62.33,4.12,4.12,0,0,1,1.29.91,4.74,4.74,0,0,1,.87,1.35,4.23,4.23,0,0,1,.32,1.63,4.14,4.14,0,0,1-.32,1.62,4.41,4.41,0,0,1-.87,1.31,3.89,3.89,0,0,1-1.29.88,3.83,3.83,0,0,1-1.62.29Z"/><path class="cls-2" d="M443.05,216.84a4.37,4.37,0,0,1-2.74-1.28,3.84,3.84,0,0,1-1.1-2.82V180a4,4,0,0,1,.32-1.61,4.11,4.11,0,0,1,.88-1.33,3.86,3.86,0,0,1,1.33-.9,4.23,4.23,0,0,1,1.63-.32h21.54a4.13,4.13,0,0,1,1.61.32,3.84,3.84,0,0,1,1.3.9,4.41,4.41,0,0,1,.86,1.33,4.24,4.24,0,0,1,0,3.23,4.54,4.54,0,0,1-.86,1.33,3.81,3.81,0,0,1-1.3.89,4,4,0,0,1-1.61.32H447.53v7.43h13.82a3.66,3.66,0,0,1,1.62.3,4.69,4.69,0,0,1,1.33.91,4.17,4.17,0,0,1,.89,1.36,4.25,4.25,0,0,1,.32,1.65,3.84,3.84,0,0,1-.32,1.6,4,4,0,0,1-.89,1.3,4.23,4.23,0,0,1-2.95,1.17H447.53v8.61h17.38a4,4,0,0,1,1.61.33,4.17,4.17,0,0,1,1.3.91,4.51,4.51,0,0,1,.86,1.35,4.05,4.05,0,0,1,.32,1.63,4,4,0,0,1-.32,1.62,4.2,4.2,0,0,1-.86,1.31,3.93,3.93,0,0,1-1.3.88,3.78,3.78,0,0,1-1.61.29Z"/><path class="cls-2" d="M477.84,216.84a4.61,4.61,0,0,1-1.65-.18,3.57,3.57,0,0,1-1.49-.88,4.44,4.44,0,0,1-1.07-1.44,3.31,3.31,0,0,1-.31-1.66c0-.11,0-.22,0-.32a3.06,3.06,0,0,1,.05-.32,4.83,4.83,0,0,1,.17-.68,4.11,4.11,0,0,1,.28-.6,4.41,4.41,0,0,1,.57-.84l21.92-25.73H477.61a4.1,4.1,0,0,1-2.93-1.21,4.6,4.6,0,0,1-.88-1.33,4.14,4.14,0,0,1-.32-1.62,3.81,3.81,0,0,1,.34-1.61,4.37,4.37,0,0,1,.91-1.33,4.09,4.09,0,0,1,1.36-.9,4.37,4.37,0,0,1,1.65-.32H505a4.14,4.14,0,0,1,2.21.71,1.62,1.62,0,0,1,.29.19l.29.22a4.13,4.13,0,0,1,1,1.31,4,4,0,0,1,.4,1.52,4.43,4.43,0,0,1-.19,1.57,3.94,3.94,0,0,1-.82,1.46l-21.76,25.67h19.2a4,4,0,0,1,1.62.32,3.77,3.77,0,0,1,1.29.89,4.37,4.37,0,0,1,.87,1.33,4.24,4.24,0,0,1,0,3.23,4.26,4.26,0,0,1-.87,1.33,3.94,3.94,0,0,1-1.29.9,4.14,4.14,0,0,1-1.62.32Z"/><path class="cls-2" d="M413,115.16V127h-8.32q0,8.55-3.84,12.95t-11,4.4a32.43,32.43,0,0,1-10.07-1.76l2.32-10.39a26.9,26.9,0,0,0,5.75.88,4.41,4.41,0,0,0,3.6-1.36c.75-.91,1.12-2.48,1.12-4.72V88.61h12.08v26.55ZM393.6,79.57a6.76,6.76,0,1,1,4.8,2A6.54,6.54,0,0,1,393.6,79.57Z"/><path class="cls-2" d="M447.34,115.16V127q-12.7,0-17.19-7a19.2,19.2,0,0,1-7.24,5.2A25.35,25.35,0,0,1,413,127a6.33,6.33,0,0,1-4.55-1.76,5.72,5.72,0,0,1-1.84-4.32,5.34,5.34,0,0,1,1.76-4.16,6.63,6.63,0,0,1,4.63-1.6,10.22,10.22,0,0,0,7.2-2.56q2.81-2.55,2.8-7.68V88.61H435v16.31a10.17,10.17,0,0,0,2.56,7.28Q440.55,115.17,447.34,115.16Zm-31.19,30.55a6.76,6.76,0,1,1,4.8,2A6.55,6.55,0,0,1,416.15,145.71Zm15.92,0a6.75,6.75,0,1,1,4.8,2A6.51,6.51,0,0,1,432.07,145.71Z"/><path class="cls-2" d="M442.74,116.84a6.49,6.49,0,0,1,4.6-1.68h16V127h-16a6.49,6.49,0,0,1-4.6-1.68,5.89,5.89,0,0,1,0-8.48Z"/><path class="cls-2" d="M458.74,116.84a6.47,6.47,0,0,1,4.6-1.68h16V127h-16a6.47,6.47,0,0,1-4.6-1.68,5.89,5.89,0,0,1,0-8.48Z"/><path class="cls-2" d="M474.73,116.84a6.49,6.49,0,0,1,4.6-1.68h16V127h-16a6.49,6.49,0,0,1-4.6-1.68,5.89,5.89,0,0,1,0-8.48Z"/><path class="cls-2" d="M490.73,116.84a6.47,6.47,0,0,1,4.6-1.68h16V127h-16a6.47,6.47,0,0,1-4.6-1.68,5.89,5.89,0,0,1,0-8.48Z"/><path class="cls-2" d="M506.72,116.84a6.47,6.47,0,0,1,4.6-1.68h16V127h-16a6.47,6.47,0,0,1-4.6-1.68,5.89,5.89,0,0,1,0-8.48Z"/><path class="cls-2" d="M522.72,116.84a6.44,6.44,0,0,1,4.59-1.68h16V127h-16a6.44,6.44,0,0,1-4.59-1.68,5.89,5.89,0,0,1,0-8.48Z"/><path class="cls-2" d="M538.71,116.84a6.47,6.47,0,0,1,4.6-1.68h16V127h-16a6.47,6.47,0,0,1-4.6-1.68,5.89,5.89,0,0,1,0-8.48Z"/><path class="cls-2" d="M599.49,86.13a21.78,21.78,0,0,1,7.76,8.28A23.86,23.86,0,0,1,610.09,106a22,22,0,0,1-2.8,11.32,18.88,18.88,0,0,1-7.44,7.24A21.24,21.24,0,0,1,589.69,127a24.85,24.85,0,0,1-8.51-1.52,25.34,25.34,0,0,1-7.8-4.56,15.51,15.51,0,0,1-6,4.52,20.23,20.23,0,0,1-8,1.56,6.37,6.37,0,0,1-4.56-1.76,5.75,5.75,0,0,1-1.83-4.32,5.36,5.36,0,0,1,1.75-4.16,6.67,6.67,0,0,1,4.64-1.6,6.93,6.93,0,0,0,3.92-.92,5.09,5.09,0,0,0,2-2.52,44,44,0,0,0,1.4-5c.53-2.29.91-3.78,1.12-4.47q2.47-9.12,7.8-14.16a18.07,18.07,0,0,1,12.91-5A20.7,20.7,0,0,1,599.49,86.13Zm-4.36,27.23q2.88-2.6,2.88-7.4a11.42,11.42,0,0,0-2.64-7.71,8.73,8.73,0,0,0-7-3.08,6.92,6.92,0,0,0-5.32,2.2,19.28,19.28,0,0,0-3.63,7,27.09,27.09,0,0,0-1.2,4.87,11.16,11.16,0,0,0-.28,1.32,11.18,11.18,0,0,1-.44,1.72A16.92,16.92,0,0,0,587.85,116,10.43,10.43,0,0,0,595.13,113.36Z"/><path class="cls-2" d="M647.51,115.16V127H639.2q0,8.55-3.84,12.95t-11,4.4a32.49,32.49,0,0,1-10.08-1.76l2.32-10.39a26.88,26.88,0,0,0,5.76.88,4.43,4.43,0,0,0,3.6-1.36c.75-.91,1.12-2.48,1.12-4.72V88.61H639.2v26.55Z"/><path class="cls-2" d="M657.51,88.61h12.07V127H647.51a6.37,6.37,0,0,1-4.56-1.76,5.76,5.76,0,0,1-1.84-4.32,5.37,5.37,0,0,1,1.76-4.16,6.67,6.67,0,0,1,4.64-1.6h10Zm-6.88-9.2a6.76,6.76,0,1,1,4.8,2A6.55,6.55,0,0,1,650.63,79.41Zm15.92,0a6.75,6.75,0,1,1,4.79,2A6.51,6.51,0,0,1,666.55,79.41Z"/><path class="cls-2" d="M158.56,48.15a8.3,8.3,0,0,0-.44,11.26,102.2,102.2,0,0,1-4.91,138.48l-.29.3a102.23,102.23,0,0,1-138.79,5.2,8.28,8.28,0,0,0-11.25.44l-.1.1a8.32,8.32,0,0,0,.48,12.19A119,119,0,0,0,164.75,210l.3-.29a119,119,0,0,0,5.8-161.2,8.31,8.31,0,0,0-12.19-.47Z"/><path class="cls-3" d="M81,48.61v.13A8.34,8.34,0,0,0,88.5,57a69.46,69.46,0,0,1,41.63,117.81l-.29.3A69.16,69.16,0,0,1,88.5,195,8.34,8.34,0,0,0,81,203.25v.13a8.28,8.28,0,0,0,9.11,8.26,85.73,85.73,0,0,0,51.54-24.7,4.11,4.11,0,0,0,.29-.3A86.14,86.14,0,0,0,90.13,40.35,8.27,8.27,0,0,0,81,48.61Z"/><path class="cls-4" d="M81,70.78A55.09,55.09,0,0,0,42,86.65a4.11,4.11,0,0,0-.3.29,55,55,0,0,0-15.24,29,8.3,8.3,0,0,0,8.17,9.78h.14a8.33,8.33,0,0,0,8.17-6.83A38.28,38.28,0,0,1,53.5,98.77l.3-.29a38.48,38.48,0,0,1,64.74,20.39,8.32,8.32,0,0,0,8.16,6.83h.14a8.29,8.29,0,0,0,8.17-9.78A55.15,55.15,0,0,0,81,70.78Z"/><path class="cls-1" d="M96.26,137.66a8.3,8.3,0,0,0-8.45-2.15,10.35,10.35,0,0,1-2.92.51,9.87,9.87,0,0,1-7.09-2.64l-.31-.28a10,10,0,0,1-2.92-6.81A9.78,9.78,0,0,1,75,123a8.46,8.46,0,0,0-2-8.55l-.11-.11a8.32,8.32,0,0,0-13.79,3.38,26.81,26.81,0,0,0,6.53,27.23l.3.29a26.7,26.7,0,0,0,18.93,7.55,27.28,27.28,0,0,0,8.1-1.35,8.3,8.3,0,0,0,3.27-13.76Z"/></svg>