<?xml version="1.0" encoding="UTF-8"?> <!-- Generator: Adobe Illustrator 26.1.0, SVG Export Plug-In . SVG Version: 6.00 Build 0) --> <svg xmlns="http://www.w3.org/2000/svg" xmlns:xlink="http://www.w3.org/1999/xlink" version="1.1" id="Layer_1" x="0px" y="0px" viewBox="0 0 3600 3600" style="enable-background:new 0 0 3600 3600;" xml:space="preserve"> <style type="text/css"> .st0{fill:#F5F5F7;} .st1{fill:#3E3D6F;} .st2{fill:#B32536;} .st3{fill:#D8202A;} .st4{fill:#2057A7;} .st5{fill:#F1F0F0;} .st6{fill:#FFFFFF;} </style> <g> <path class="st0" d="M1125.09,1155.13c32.07-0.03,64.14-0.06,96.21-0.09c0.07,4,0.21,8,0.21,12.01 c0.75,779.76,1.5,1559.53,2.24,2339.29c0,2.46,0.32,4.98-0.05,7.38c-1.04,6.71,1.93,8.06,8.2,7.99 c29.29-0.35,58.58-0.19,87.87-0.21c-0.4,0.57,0.94,1.93-0.92,1.87c-2.46-0.08-4.93-0.01-7.4-0.01 c-410.13,0.39-820.27,0.79-1230.4,1.06c-2.71,0-6.27,2.14-8.33-1.73c220.15-0.22,440.3-0.5,660.45-0.41 c9.35,0,11.38-2.24,11.36-11.45c-0.57-308.41-0.81-616.83-1.12-925.24c0-3.38-0.22-6.76-0.34-10.14c0.09-3.69,0.26-7.38,0.25-11.07 c-0.43-465.62-0.88-931.24-1.32-1396.87c0-4,0.06-8.01,0.08-12.01c32.07-0.03,64.14-0.06,96.21-0.09 c-0.05,3.39-0.15,6.77-0.15,10.16c0.74,781.44,1.49,1562.89,2.23,2344.33c0,1.54,0.21,3.12-0.03,4.62c-1,6.16,1.65,7.64,7.59,7.56 c25.28-0.34,50.57-0.18,75.86-0.21c12.22-0.01,12.23-0.01,12.21-12.16c-0.74-780.52-1.49-1561.04-2.2-2341.56 c0-4.27,0.46-8.55,0.7-12.83c32.07-0.03,64.14-0.06,96.21-0.09c-0.25,3.97-0.72,7.93-0.71,11.9 c0.71,780.49,1.46,1560.98,2.2,2341.47c0,1.85,0.22,3.73-0.03,5.54c-0.84,5.9,1.25,7.87,7.48,7.77c25.28-0.39,50.57-0.2,75.85-0.22 c12.09-0.01,12.1-0.01,12.08-12.15c-0.75-781.11-1.49-1562.21-2.25-2343.32C1125.36,1162.51,1125.19,1158.82,1125.09,1155.13z"></path> <path class="st1" d="M743.08,2575.44c0.12,3.38,0.33,6.76,0.34,10.14c0.31,308.41,0.56,616.83,1.12,925.24 c0.02,9.21-2.01,11.45-11.36,11.45c-220.15-0.09-440.3,0.2-660.45,0.41c-0.3-315.54-0.6-631.08-0.9-946.62 c32-0.13,64.01-0.27,96.01-0.4c32.05-0.04,64.1-0.07,96.15-0.11c31.79-0.04,63.58-0.09,95.36-0.13 c32.08-0.02,64.15-0.04,96.23-0.06c31.88-0.02,63.75-0.05,95.63-0.07c32.04-0.02,64.08-0.05,96.13-0.07 C679.24,2575.29,711.16,2575.36,743.08,2575.44z M371.02,3385.21c-4.64-6.48-11.99-12.5-13.19-19.56 c-1.32-7.78,8.1-13.33,12.04-20.35c0.26-0.46,0.19-1.11,0.39-2.49c-8.14,2.49-16.63,7.97-23.57,6.43 c-7.39-1.63-9.88-12.81-17.88-20.32c0.01,10.16,2.86,20-0.75,25.9c-3.81,6.24-14.84,5.78-22.47,8.93c-0.29,0.12-0.41,0.68-0.91,1.6 c6.04,1.96,11.76,4.1,17.64,5.64c5.18,1.36,7.66,3.8,7.12,9.56c-0.55,5.86-0.11,11.82-0.11,17.73c5.08-4.12,8.65-8.28,11.41-12.91 c3.24-5.44,6.8-6.35,12.87-4.25c5.48,1.9,10.83,5.87,17.28,3.87l-0.06,0.41L371.02,3385.21z M370.56,2911.9 c-4.64-6.48-11.99-12.5-13.19-19.56c-1.32-7.78,8.1-13.33,12.04-20.35c0.26-0.46,0.19-1.11,0.39-2.49 c-8.14,2.49-16.63,7.96-23.57,6.43c-7.39-1.63-9.88-12.81-17.88-20.32c0.01,10.16,2.86,20-0.75,25.9 c-3.81,6.24-14.84,5.78-22.47,8.93c-0.29,0.12-0.41,0.68-0.91,1.6c6.03,1.96,11.75,4.09,17.64,5.64c5.18,1.36,7.66,3.8,7.12,9.56 c-0.55,5.86-0.11,11.82-0.11,17.73c5.08-4.12,8.65-8.28,11.41-12.91c3.24-5.44,6.8-6.35,12.87-4.25c5.48,1.9,10.83,5.87,17.28,3.87 l-0.06,0.41C370.37,2912.08,370.56,2911.9,370.56,2911.9z M168.47,2675.49c-3.33-4.77-6.36-9.8-10.09-14.25 c-3.73-4.45-4.27-7.99-0.12-12.62c3.88-4.34,6.81-9.52,11.51-16.28c-8.24,2.68-14.14,4.25-19.75,6.53 c-4.8,1.95-7.73,1.12-10.49-3.43c-3.18-5.25-7.22-9.97-10.89-14.93c-1.19-0.34-2.38-0.68-3.56-1.02 c9.65,24.3-4.32,30.93-22.07,34.75c-0.13,0.03-0.2,0.35-0.69,1.28c6.21,1.99,12.24,4.16,18.4,5.83c4.8,1.3,7.16,3.48,6.65,8.95 c-0.58,6.17-0.12,12.43-0.12,21.04c5.23-7.13,9.15-11.84,12.33-17c2.83-4.6,5.97-4.83,10.79-3.39c5.98,1.79,11.49,5.93,18.24,4.42 c0.02,0.28,0.03,0.56,0.05,0.85C168.59,2675.98,168.53,2675.74,168.47,2675.49z M168.92,3148.8c-3.33-4.77-6.36-9.8-10.09-14.25 c-3.73-4.45-4.27-7.99-0.12-12.62c3.88-4.34,6.81-9.52,11.51-16.28c-8.24,2.68-14.14,4.25-19.75,6.53 c-4.8,1.95-7.73,1.12-10.49-3.43c-3.18-5.25-7.22-9.97-11.75-16.09c-1.5,10.15,2.9,20.47-2.06,25.96 c-4.87,5.4-14.94,6.13-22.72,8.93c-0.15,0.05-0.2,0.35-0.7,1.28c6.21,1.99,12.24,4.16,18.4,5.83c4.8,1.3,7.16,3.48,6.65,8.95 c-0.58,6.17-0.12,12.43-0.12,21.04c5.23-7.13,9.15-11.84,12.33-17c2.83-4.6,5.97-4.83,10.79-3.39c5.98,1.79,11.49,5.93,18.24,4.42 c0.02,0.28,0.03,0.56,0.05,0.85C169.04,3149.29,168.98,3149.04,168.92,3148.8z M169.31,3423.17c-0.06-0.13-0.13-0.27-0.19-0.4 c0.1,0.2,0.2,0.41,0.3,0.61c-1.28-1.34-3.06-1.19-4.24-0.46c-16.42,10.02-26.91,3.33-34.51-11.96c-0.31-0.63-0.73-1.87-3.38-0.43 c6.8,20.14-3.98,29.21-22.81,32.49c-0.44,0.08-0.77,0.78-1.31,1.37c6.22,2.05,12.24,4.39,18.45,5.97c5.07,1.29,6.72,3.78,6.53,9.02 c-0.22,6.05-1.26,12.34,1.11,19.18c4.22-5.81,8.14-10.58,11.35-15.79c2.58-4.17,5.23-4.74,9.77-3.18 c6.03,2.08,11.96,5.08,19.26,5.31c-5.08-7.58-13.28-14.43-13.22-21.2C156.48,3436.82,164.71,3430.03,169.31,3423.17z M370.39,2712.97l-0.33-0.22l0.21,0.41c-1.12-0.22-2.56-0.99-3.32-0.56c-16.84,9.5-28.41,4.11-36.16-12.52 c-0.13-0.28-1-0.21-2.13-0.42c0.01,6.2-0.41,12.35,0.14,18.41c0.49,5.4-1.73,7.76-6.6,9.08c-6.16,1.67-12.2,3.84-20.24,6.42 c6.62,2.16,11.06,4.14,15.72,5c8.67,1.6,12.51,5.87,11.21,15.04c-0.64,4.48-0.96,9.4,1.79,17.11c7.1-22.68,20.09-25.15,37.08-15.84 c0.41,0.22,1.15-0.17,2.61-0.44c-4.91-6.97-12.94-13.42-13.4-20.36C356.44,2726.32,365.69,2720.06,370.39,2712.97z M168.86,2949.86 c-0.06-0.13-0.13-0.27-0.19-0.4c0.1,0.2,0.2,0.41,0.3,0.61c-1.28-1.34-3.06-1.19-4.24-0.46c-16.42,10.02-26.91,3.33-34.51-11.96 c-0.31-0.63-0.73-1.87-3.38-0.43c6.8,20.14-3.98,29.21-22.81,32.49c-0.44,0.08-0.77,0.78-1.31,1.37 c6.22,2.05,12.24,4.39,18.45,5.97c5.07,1.29,6.72,3.78,6.53,9.02c-0.22,6.05-1.26,12.34,1.11,19.18 c4.22-5.81,8.14-10.58,11.35-15.79c2.58-4.17,5.23-4.74,9.77-3.18c6.03,2.08,11.96,5.08,19.26,5.31 c-5.08-7.58-13.28-14.43-13.22-21.2C156.03,2963.51,164.25,2956.72,168.86,2949.86z M370.84,3186.28l-0.33-0.22l0.21,0.41 c-1.12-0.21-2.56-0.99-3.32-0.56c-16.84,9.5-28.41,4.11-36.16-12.52c-0.13-0.28-1-0.21-2.13-0.41c0.01,6.21-0.41,12.35,0.14,18.41 c0.49,5.4-1.73,7.76-6.6,9.08c-6.16,1.67-12.2,3.84-20.24,6.42c6.62,2.16,11.07,4.14,15.72,5c8.67,1.6,12.51,5.87,11.21,15.04 c-0.64,4.48-0.96,9.4,1.79,17.11c7.1-22.68,20.1-25.15,37.08-15.84c0.41,0.22,1.15-0.17,2.61-0.44 c-4.9-6.97-12.94-13.41-13.4-20.36C356.89,3199.63,366.14,3193.37,370.84,3186.28z M436.49,2792.01c0.33-0.4,0.66-0.79,0.98-1.18 c-0.29-0.02-0.58-0.03-0.87-0.05c0.04,0.45,0.07,0.91,0.11,1.36c-6.38-1.74-11.71,1.99-17.09,4c-5.87,2.19-8.92,0.75-11.97-4.13 c-3.1-4.96-6.91-9.47-11.84-16.1c0.01,8.8-0.35,14.92,0.13,20.97c0.42,5.26-1.45,7.54-6.51,9.04c-5.87,1.74-12.21,2.73-18.35,7.06 c6.81,2.27,12.46,4.59,18.33,5.97c5.16,1.22,6.98,3.69,6.57,8.96c-0.48,6.2-0.1,12.46-0.09,21.16c5.25-7.19,9.1-11.93,12.34-17.07 c2.72-4.32,5.35-5.29,10.55-3.65c5.8,1.83,11.27,6.09,17.99,4.23c-0.8,0.44-0.84,0.94-0.06,1.37c0.22,0.12,0.59-0.03,0.88-0.06 c-0.35-0.39-0.7-0.78-1.05-1.17c-4.34-6.63-11.53-12.95-12.27-19.96C423.44,2805.05,433.53,2799.81,436.49,2792.01z M638.47,2911.83c-0.69-1.34-1.22-2.79-2.08-4c-12.03-16.89-12.02-16.87-0.3-33.33c0.93-1.3,2.96-2.36,1.54-5.12 c-6,1.91-12.2,3.52-18.1,5.87c-4.19,1.67-6.65,0.92-9.1-2.85c-3.58-5.5-7.73-10.63-11.64-15.92c-0.88-0.3-1.75-0.6-2.63-0.9 c6.88,21.89-2.37,32-22.15,34.47c-0.39,0.05-0.71,0.61-1.65,1.46c5.87,1.98,11.24,4.22,16.83,5.57c6.19,1.5,9.34,4.21,8.45,11.19 c-0.71,5.55-0.13,11.27-0.13,19.21c4.9-6.68,8.58-11.12,11.61-15.97c3.06-4.92,6.24-6.29,12.08-4.15c5.55,2.03,11,5.54,17.42,4.35 c0.11,0.28,0.22,0.56,0.34,0.84C638.81,2912.31,638.64,2912.07,638.47,2911.83z M638.82,3185.9c-0.02-0.17-0.04-0.34-0.05-0.52 c0.08,0.23,0.16,0.46,0.25,0.69c-6.79-1.34-12.32,2.7-18.3,4.54c-4.93,1.52-7.87,0.87-10.66-3.65c-3.24-5.26-7.33-10-12.3-16.63 c0.01,8.17-0.45,14.03,0.15,19.78c0.63,5.98-1.53,8.78-7.27,10.31c-5.97,1.59-12.24,2.79-18.09,6.77 c5.37,1.71,9.96,3.65,14.74,4.58c8.21,1.6,12.16,5.49,10.67,14.39c-0.81,4.82-0.13,9.88-0.13,16.96 c5.4-7.39,9.44-12.44,12.92-17.86c2.44-3.8,4.8-4.36,9.08-2.87c6.1,2.12,12.12,5.04,22.65,5.64 C621.35,3213.4,625.8,3199.65,638.82,3185.9z M638.37,2712.59c-0.02-0.17-0.04-0.34-0.05-0.52c0.08,0.23,0.16,0.46,0.25,0.69 c-6.79-1.34-12.32,2.7-18.3,4.54c-4.93,1.52-7.87,0.87-10.66-3.65c-3.24-5.26-7.33-10-12.3-16.63c0.01,8.17-0.45,14.03,0.15,19.78 c0.63,5.98-1.53,8.78-7.27,10.31c-5.97,1.59-12.24,2.79-18.09,6.77c5.37,1.71,9.96,3.65,14.74,4.58 c8.21,1.6,12.16,5.49,10.67,14.39c-0.81,4.82-0.13,9.88-0.13,16.96c5.4-7.39,9.44-12.44,12.92-17.86c2.44-3.8,4.8-4.36,9.08-2.87 c6.1,2.12,12.12,5.04,22.65,5.64C620.9,2740.09,625.35,2726.34,638.37,2712.59z M638.93,3385.14c-0.69-1.34-1.22-2.79-2.08-4 c-12.03-16.89-12.02-16.87-0.3-33.33c0.93-1.3,2.96-2.36,1.54-5.12c-6,1.91-12.2,3.52-18.1,5.87c-4.19,1.67-6.65,0.92-9.1-2.85 c-3.58-5.5-7.73-10.63-11.64-15.92c-0.88-0.3-1.75-0.6-2.63-0.9c6.88,21.89-2.37,32-22.15,34.47c-0.39,0.05-0.71,0.61-1.65,1.46 c5.87,1.98,11.25,4.22,16.83,5.57c6.19,1.5,9.34,4.21,8.45,11.19c-0.71,5.55-0.13,11.27-0.13,19.2c4.9-6.67,8.58-11.12,11.61-15.97 c3.06-4.92,6.24-6.29,12.08-4.15c5.55,2.03,11,5.54,17.42,4.35c0.11,0.28,0.22,0.56,0.34,0.84 C639.26,3385.62,639.09,3385.38,638.93,3385.14z M436.98,3306.04c-4.34-6.63-11.53-12.95-12.27-19.96 c-0.82-7.72,9.27-12.96,12.23-20.76c0.33-0.4,0.66-0.79,0.98-1.19c-0.29-0.02-0.58-0.03-0.87-0.05c0.04,0.45,0.07,0.91,0.11,1.36 c-6.38-1.74-11.71,1.99-17.09,4c-5.87,2.19-8.92,0.75-11.98-4.13c-3.1-4.96-6.91-9.47-11.84-16.1c0.01,8.8-0.35,14.92,0.13,20.97 c0.42,5.26-1.45,7.54-6.51,9.04c-5.87,1.74-12.21,2.73-18.35,7.06c6.81,2.27,12.46,4.59,18.33,5.97c5.16,1.22,6.98,3.69,6.57,8.96 c-0.48,6.2-0.1,12.46-0.09,21.16c5.25-7.19,9.1-11.93,12.34-17.06c2.72-4.32,5.35-5.29,10.55-3.65c5.8,1.83,11.27,6.09,17.99,4.23 c-0.8,0.44-0.84,0.94-0.06,1.37c0.22,0.12,0.59-0.03,0.88-0.06C437.68,3306.82,437.33,3306.43,436.98,3306.04z M235.2,3069.47 c-4.34-6.6-11.54-12.91-12.24-19.87c-0.76-7.63,9.36-12.83,12.15-20.69c0.46-0.32,0.91-0.64,1.37-0.96 c-0.84-0.84-1.58-0.64-2.26,0.22c-5.29,1.52-10.83,2.47-15.79,4.71c-5.75,2.6-8.91,0.84-11.99-4.02 c-3.14-4.94-6.97-9.45-11.97-16.09c0.01,8.83-0.33,14.93,0.13,20.96c0.4,5.19-1.35,7.59-6.47,9.06 c-5.87,1.68-12.16,2.78-18.31,7.03c6.81,2.27,12.45,4.62,18.32,5.97c5.26,1.21,6.85,3.85,6.49,9.01 c-0.44,6.18-0.09,12.42-0.08,20.88c6.41-8.44,9.96-17.27,16.32-20.38c7.04-3.44,15.25,4.05,23.36,5.09c0.75,0.72,1.52,1,2.33,0.09 C236.11,3070.14,235.66,3069.81,235.2,3069.47z M234.66,2712.6c0.32-0.18,0.64-0.36,0.96-0.53c-0.18,0-0.44-0.08-0.51,0 c-0.15,0.2-0.21,0.47-0.31,0.71c-6.02-0.17-11.37,2.54-16.68,4.63c-5.78,2.27-8.93,0.85-11.99-4.17 c-3.05-5.01-6.99-9.48-11.95-16.08c0.01,7.27-0.5,11.91,0.12,16.38c1.21,8.67-1.59,13.52-10.69,15.17 c-4.7,0.85-9.86,1.84-14.17,5.49c8.11,2.8,17.51,3.48,22.65,8.5c5.78,5.64,1.14,15.66,2.19,23.7c0.06,0.49,0.5,0.93,1.19,2.15 c3.97-5.33,8.16-10.15,11.38-15.55c2.82-4.75,5.87-4.96,10.56-3.27c5.95,2.14,11.81,4.85,19.25,5.43 c-4.31-5.95-7.85-11.35-11.94-16.29c-3.07-3.71-2.96-6.45-0.1-10.38C228.3,2723.45,233.4,2719.19,234.66,2712.6z M235.11,3185.91 c0.32-0.18,0.64-0.36,0.96-0.53c-0.18,0-0.44-0.08-0.51,0c-0.15,0.2-0.21,0.47-0.31,0.71c-6.02-0.17-11.37,2.54-16.68,4.63 c-5.78,2.27-8.93,0.85-11.99-4.17c-3.05-5.01-6.99-9.48-11.95-16.08c0.01,7.28-0.5,11.91,0.12,16.38 c1.21,8.67-1.59,13.52-10.69,15.17c-4.7,0.85-9.86,1.84-14.17,5.49c8.11,2.8,17.51,3.48,22.65,8.5c5.78,5.64,1.14,15.66,2.19,23.7 c0.06,0.49,0.5,0.93,1.19,2.15c3.97-5.33,8.16-10.15,11.38-15.55c2.82-4.75,5.87-4.96,10.56-3.27c5.95,2.14,11.81,4.85,19.25,5.43 c-4.31-5.95-7.85-11.34-11.94-16.29c-3.07-3.71-2.96-6.45-0.1-10.38C228.75,3196.76,233.85,3192.5,235.11,3185.91z M705.46,3305.61 c-4.34-6.57-11.54-12.86-12.25-19.8c-0.78-7.63,9.34-12.8,12.17-20.62c0.45-0.34,0.9-0.68,1.35-1.01c-0.82-0.95-1.57-0.62-2.3,0.12 c-2.65,0.76-5.32,1.45-7.94,2.29c-14.99,4.8-14.95,4.78-24.15-7.59c-2.04-2.74-3.45-6.19-7.67-8.42c0,4.68-0.56,8.4,0.12,11.89 c2.15,11.13-2.24,17.06-13.34,18.86c-3.61,0.59-7.51,1.45-11.39,4.74c6.55,2.12,11.92,4.38,17.51,5.54 c6.15,1.27,7.72,4.59,7.25,10.38c-0.47,5.88-0.09,11.82-0.09,17.74c0.71,0.72,1.42,1.45,2.13,2.17 c6.86-21.77,20.41-23.87,37.6-15.31c0.66,0.13,1.33,0.26,1.99,0.4C706.11,3306.53,705.78,3306.07,705.46,3305.61z M705,2832.3 c-4.34-6.57-11.54-12.86-12.26-19.8c-0.78-7.63,9.34-12.8,12.17-20.62c0.45-0.34,0.9-0.68,1.35-1.01c-0.82-0.95-1.57-0.62-2.3,0.12 c-2.65,0.76-5.32,1.45-7.94,2.29c-14.99,4.8-14.95,4.78-24.15-7.59c-2.04-2.74-3.45-6.19-7.67-8.42c0,4.68-0.56,8.4,0.12,11.89 c2.15,11.13-2.24,17.06-13.34,18.86c-3.61,0.59-7.51,1.45-11.39,4.74c6.55,2.12,11.92,4.38,17.51,5.54 c6.15,1.27,7.72,4.59,7.25,10.38c-0.47,5.88-0.09,11.82-0.09,17.74c0.71,0.72,1.42,1.45,2.13,2.17 c6.86-21.77,20.41-23.87,37.6-15.31c0.66,0.13,1.33,0.26,1.99,0.4C705.66,2833.22,705.33,2832.76,705,2832.3z M705.29,3422.11 c0.32-0.17,0.64-0.34,0.96-0.51c-0.17,0-0.41-0.08-0.48,0c-0.16,0.19-0.23,0.45-0.34,0.68c-6.02-0.09-11.28,2.77-16.72,4.64 c-5.08,1.74-8.42,1.6-11.45-3.51c-3.14-5.3-7.31-9.99-12.45-16.83c0.01,8.79-0.47,14.94,0.16,20.97c0.61,5.86-2.13,7.96-7.1,9.47 c-5.86,1.79-12.14,2.73-17.92,6.76c5.16,1.66,9.44,3.58,13.92,4.37c8.72,1.53,12.55,5.87,11.13,14.98 c-0.72,4.67-0.12,9.54-0.11,16.81c5.42-7.37,9.57-12.57,13.19-18.11c2.45-3.75,4.85-4.52,9.09-2.83c6.17,2.46,12.66,4.09,21,6.69 c-5.07-6.98-8.62-12.35-12.68-17.31c-3-3.66-3.14-6.37-0.17-10.35C699.04,3433.04,704.12,3428.74,705.29,3422.11z M705.03,3148.77 c-0.33-6.34-5.44-9.93-8.83-14.3c-3.81-4.92-4.67-8.51-0.1-13.41c3.92-4.21,6.87-9.32,11.69-16.03c-8.44,2.74-14.35,4.34-20,6.58 c-4.72,1.88-7.76,1.36-10.55-3.32c-3.23-5.41-7.35-10.28-11.09-15.39c-0.97-0.34-1.93-0.68-2.9-1.02 c6.72,21.75-1.75,32.47-21.91,34.74c-0.41,0.05-0.76,0.57-1.78,1.37c4.32,1.49,7.97,3.38,11.8,3.94 c10.61,1.56,15.36,6.8,13.32,17.82c-0.73,3.95-0.11,8.15-0.1,14.35c2.86-3.63,4.2-5.25,5.44-6.94 c11.28-15.28,11.27-15.26,28.92-9.8c2,0.62,4.15,0.8,6.22,1.18c0.13,0.25,0.23,0.53,0.41,0.74c0.05,0.06,0.34-0.08,0.52-0.13 C705.75,3149.03,705.39,3148.9,705.03,3148.77z M704.83,2948.8c0.32-0.17,0.64-0.34,0.96-0.51c-0.17,0-0.41-0.08-0.48,0 c-0.16,0.19-0.23,0.45-0.34,0.68c-6.02-0.09-11.28,2.77-16.72,4.64c-5.08,1.74-8.42,1.6-11.45-3.51 c-3.14-5.3-7.31-9.99-12.45-16.83c0.01,8.79-0.47,14.94,0.16,20.97c0.61,5.86-2.13,7.96-7.1,9.47c-5.86,1.79-12.14,2.73-17.92,6.76 c5.16,1.66,9.44,3.58,13.92,4.37c8.72,1.53,12.55,5.87,11.13,14.98c-0.72,4.67-0.12,9.54-0.11,16.81 c5.42-7.37,9.57-12.57,13.19-18.11c2.45-3.75,4.85-4.52,9.09-2.83c6.17,2.46,12.66,4.09,21,6.69c-5.06-6.98-8.62-12.35-12.68-17.31 c-3-3.66-3.14-6.37-0.17-10.35C698.58,2959.73,703.67,2955.43,704.83,2948.8z M704.58,2675.46c-0.33-6.34-5.44-9.93-8.83-14.3 c-3.81-4.92-4.67-8.51-0.1-13.41c3.92-4.21,6.87-9.32,11.69-16.03c-8.44,2.74-14.35,4.33-20,6.58c-4.72,1.88-7.76,1.36-10.55-3.32 c-3.23-5.41-7.35-10.28-11.09-15.39c-0.97-0.34-1.93-0.68-2.9-1.02c6.72,21.75-1.75,32.47-21.91,34.74 c-0.41,0.05-0.76,0.56-1.78,1.37c4.33,1.49,7.97,3.38,11.8,3.94c10.61,1.56,15.36,6.8,13.32,17.82c-0.73,3.95-0.11,8.15-0.1,14.35 c2.86-3.63,4.2-5.25,5.44-6.94c11.28-15.28,11.27-15.26,28.92-9.8c2,0.62,4.15,0.8,6.23,1.18c0.13,0.25,0.23,0.53,0.41,0.74 c0.05,0.06,0.34-0.08,0.52-0.13C705.29,2675.72,704.94,2675.59,704.58,2675.46z M234.85,2912.55c0.61-4.26-3.02-6.34-4.99-9.13 c-8.57-12.13-8.66-12.04-0.19-23.67c2.15-2.95,4.16-6,7.44-10.75c-8.4,2.66-14.66,4.2-20.53,6.65c-4.32,1.8-6.62,0.73-9.05-2.89 c-3.67-5.48-7.82-10.63-11.76-15.93c-1.12-0.46-2.23-0.92-3.35-1.38c8.49,23.05-2.04,32.22-21.43,34.99 c-0.34,0.05-0.6,0.66-1.33,1.52c5.77,1.94,11.13,4.32,16.74,5.5c6.7,1.4,8.75,4.9,8.09,11.42c-0.56,5.54-0.11,11.19-0.1,19.3 c5.31-7.22,9.27-11.92,12.43-17.1c2.75-4.51,5.71-5.35,10.61-3.63c5.71,2,11.25,4.93,17.56,4.88c0.28,0.34,0.55,0.67,0.83,1.01 c0.06-0.24,0.11-0.47,0.17-0.71C235.62,2912.61,235.23,2912.58,234.85,2912.55z M235.3,3385.86c0.61-4.26-3.02-6.34-4.99-9.13 c-8.57-12.13-8.66-12.04-0.19-23.67c2.15-2.95,4.16-6,7.44-10.75c-8.4,2.66-14.66,4.2-20.53,6.65c-4.32,1.8-6.62,0.73-9.05-2.89 c-3.67-5.48-7.82-10.63-11.76-15.93c-0.9-0.3-1.8-0.61-2.7-0.91c6.76,21.79-2.17,32.13-22.08,34.52c-0.33,0.04-0.6,0.66-1.33,1.52 c5.77,1.94,11.13,4.32,16.74,5.5c6.7,1.4,8.75,4.9,8.09,11.42c-0.56,5.54-0.11,11.19-0.1,19.31c5.31-7.22,9.27-11.92,12.43-17.1 c2.75-4.51,5.71-5.35,10.61-3.63c5.71,2,11.25,4.93,17.56,4.88c0.28,0.34,0.55,0.67,0.83,1.01c0.06-0.24,0.11-0.47,0.17-0.71 C236.07,3385.92,235.69,3385.89,235.3,3385.86z M503.13,2912.34c-0.83-6.94-6.32-11.14-9.96-16.34c-2.48-3.54-3.04-5.96-0.08-9.52 c4.19-5.05,7.75-10.62,12.88-17.79c-8.25,2.63-14.44,4.28-20.36,6.61c-4.43,1.75-7.17,1.13-9.78-3.07 c-3.44-5.53-7.6-10.61-11.44-15.89c-0.92-0.12-1.84-0.25-2.76-0.37c6.29,21.99-2,33.22-25.68,33.8c7.88,4.8,14.25,6.06,20.37,7.8 c4.8,1.36,7.13,3.49,6.63,8.94c-0.57,6.23-0.12,12.55-0.12,18.83c0.77,1.25,1.54,2.5,2.31,3.75c6.04-25.55,21.29-23.61,38.11-16.97 c0.37,0.27,0.73,0.54,1.1,0.82c-0.01-0.26-0.01-0.51-0.02-0.77C503.93,2912.22,503.53,2912.28,503.13,2912.34z M502.93,2712.28 c0.52,0.66,0.92,0.58,1.14-0.24c0.01-0.04-0.4-0.27-0.45-0.22c-0.22,0.18-0.38,0.44-0.57,0.66c-5.68,0-10.79,2.46-15.81,4.47 c-6.02,2.41-9.35,0.98-12.83-4.22c-3.2-4.78-5.74-10.45-11.79-14.06c0.01,7.47-0.27,13.92,0.12,20.34 c0.27,4.48-1.43,6.58-5.62,7.77c-6.42,1.82-12.71,4.11-20.58,6.7c7.43,2.5,13.05,5.04,18.94,6.21c6.3,1.25,7.7,4.61,7.29,10.33 c-0.42,5.88-0.08,11.82-0.07,20.44c5.5-7.59,9.53-12.59,12.92-17.99c2.58-4.11,5.22-4.78,9.78-3.19c6.08,2.12,12.05,5.15,19.68,5.4 c-2.73-3.77-4.5-7.12-7.1-9.64c-7.96-7.72-8.61-14.92-0.3-23.03C500.14,2719.62,503.84,2716.9,502.93,2712.28z M503.58,3385.65 c-0.83-6.94-6.32-11.14-9.96-16.34c-2.48-3.54-3.04-5.96-0.08-9.52c4.2-5.05,7.75-10.62,12.88-17.79 c-8.25,2.63-14.44,4.28-20.36,6.61c-4.43,1.75-7.17,1.13-9.78-3.07c-3.44-5.53-7.6-10.61-11.44-15.89 c-0.92-0.12-1.84-0.25-2.76-0.37c6.29,21.99-2.01,33.22-25.68,33.8c7.88,4.8,14.25,6.06,20.37,7.8c4.8,1.36,7.14,3.49,6.63,8.94 c-0.57,6.23-0.12,12.55-0.12,18.83c4.95-3.87,8.39-8.08,11.25-12.66c3.29-5.26,6.61-7.93,13.35-4.99 c4.92,2.14,10.12,4.5,15.82,4.44c0.37,0.27,0.73,0.54,1.1,0.82c-0.01-0.26-0.01-0.51-0.02-0.77 C504.39,3385.53,503.98,3385.59,503.58,3385.65z M503.39,3185.58c0.52,0.66,0.92,0.58,1.14-0.24c0.01-0.03-0.4-0.27-0.45-0.22 c-0.22,0.18-0.38,0.44-0.57,0.66c-5.68,0-10.79,2.46-15.81,4.47c-6.02,2.41-9.35,0.98-12.83-4.22c-3.2-4.78-5.74-10.45-11.79-14.06 c0.01,7.47-0.27,13.92,0.12,20.34c0.27,4.48-1.43,6.58-5.62,7.77c-6.42,1.82-12.71,4.11-20.59,6.7c7.43,2.5,13.05,5.04,18.94,6.21 c6.3,1.25,7.7,4.61,7.29,10.33c-0.42,5.88-0.08,11.82-0.07,20.44c5.5-7.58,9.53-12.59,12.92-18c2.58-4.11,5.22-4.78,9.78-3.19 c6.08,2.12,12.05,5.15,19.68,5.4c-2.73-3.77-4.5-7.13-7.1-9.64c-7.96-7.72-8.61-14.92-0.3-23.03 C500.59,3192.93,504.29,3190.21,503.39,3185.58z M572.22,2949.24l-0.28-0.24l0.16,0.44c-6.79-1.54-12.36,2.45-18.26,4.42 c-5.31,1.77-8.53,0.86-11.47-3.76c-3.14-4.92-6.82-9.5-10.26-14.23c-1.78,6.3-2.25,11.82-1.64,17.22 c0.73,6.46-1.84,9.32-7.94,10.94c-5.7,1.51-11.77,2.55-17.23,6.56c6.7,2.2,12.74,4.46,18.95,6.11c4.65,1.23,6.39,3.58,6.25,8.46 c-0.17,6.21-0.92,12.56,0.95,19.92c4.29-5.85,8.36-10.51,11.38-15.77c2.78-4.84,5.84-4.96,10.51-3.27 c5.85,2.11,11.63,4.79,19.12,5.32c-5.41-7.61-14.14-14.47-13.91-21.02C558.81,2963.15,567.32,2956.25,572.22,2949.24z M572.67,3422.55l-0.28-0.24l0.16,0.44c-6.79-1.54-12.36,2.45-18.26,4.42c-5.31,1.77-8.53,0.86-11.47-3.76 c-3.14-4.92-6.82-9.5-10.26-14.23c-1.78,6.29-2.25,11.82-1.64,17.22c0.72,6.46-1.84,9.32-7.94,10.94 c-5.7,1.51-11.77,2.55-17.23,6.56c6.7,2.2,12.74,4.46,18.95,6.11c4.65,1.23,6.39,3.58,6.25,8.46c-0.17,6.21-0.92,12.56,0.95,19.92 c4.3-5.85,8.36-10.51,11.38-15.77c2.78-4.84,5.84-4.96,10.51-3.27c5.85,2.11,11.63,4.79,19.12,5.32 c-5.41-7.61-14.14-14.47-13.91-21.02C559.26,3436.46,567.77,3429.56,572.67,3422.55z M572.37,3148.57 c-3.43-4.71-6.47-9.79-10.41-14.04c-4.72-5.09-4-9.11,0.28-13.94c3.64-4.1,6.52-8.88,11.23-15.44c-8.54,2.77-14.43,4.36-20.06,6.62 c-4.71,1.88-7.65,1.4-10.43-3.34c-3.09-5.26-7.27-9.88-10.98-14.77c-2.05,8.59,0.64,18.01-2.76,23.96 c-3.8,6.65-14.73,5.94-22.26,9.19c-0.34,0.15-0.51,0.68-1.19,1.64c6.08,1.98,11.8,4.08,17.66,5.67c5.1,1.39,7.62,3.75,7.23,9.6 c-0.39,5.85-0.97,11.92,1,19.07c3.96-5.42,7.56-9.62,10.3-14.32c3.23-5.56,6.82-6.31,12.85-4.2c5.53,1.94,10.93,5.68,17.38,4.05 l-0.05,0.49C572.17,3148.83,572.37,3148.57,572.37,3148.57z M571.92,2675.26c-3.43-4.71-6.47-9.8-10.41-14.04 c-4.72-5.09-4-9.11,0.28-13.94c3.64-4.1,6.52-8.88,11.24-15.44c-8.55,2.78-14.44,4.36-20.06,6.62c-4.7,1.88-7.65,1.4-10.43-3.34 c-3.09-5.26-7.27-9.88-10.98-14.77c-2.05,8.59,0.64,18.01-2.76,23.96c-3.8,6.65-14.73,5.94-22.26,9.2 c-0.34,0.15-0.51,0.68-1.19,1.64c6.08,1.98,11.8,4.08,17.66,5.67c5.1,1.39,7.62,3.75,7.23,9.6c-0.39,5.85-0.97,11.92,1,19.08 c3.95-5.42,7.56-9.62,10.3-14.32c3.23-5.56,6.82-6.31,12.85-4.2c5.53,1.94,10.93,5.68,17.38,4.05l-0.05,0.49L571.92,2675.26z M530.56,2848.36c4.88-6.66,8.53-11.2,11.66-16.07c2.87-4.46,5.72-6.31,11.23-3.84c5.72,2.56,11.99,3.88,19.77,6.28 c-5.2-7.2-9.13-13-13.45-18.5c-2.28-2.91-2.39-5.04-0.04-8.01c4.33-5.48,8.2-11.32,13.35-18.53c-7.14,2.3-12.76,3.63-17.96,5.92 c-6.07,2.66-10.08,1.87-13.5-4.22c-2.72-4.84-6.63-9-11.45-15.37c0.01,8.51-0.33,14.62,0.12,20.67c0.39,5.28-1.54,7.74-6.66,9.02 c-6,1.5-11.76,3.92-19.69,6.65c3.66,1.21,5.03,1.65,6.4,2.12c19.57,6.65,19.57,6.65,19.9,26.99 C530.27,2842.95,530.37,2844.42,530.56,2848.36z M572.09,3308.96c0.13-0.85,0.25-1.7,0.38-2.54c-3.55-4.97-6.69-10.32-10.78-14.81 c-4.26-4.67-3.57-8.1,0.25-12.52c3.9-4.51,7-9.71,11.43-16c-7.76,2.43-14.04,3.83-19.81,6.37c-5.09,2.24-7.81,0.84-10.55-3.44 c-3.3-5.14-7.14-9.93-12.38-17.1c0.01,7.31-0.49,11.63,0.12,15.8c1.33,9.12-1.53,14.3-11.26,15.92c-4.34,0.72-9.38,1.6-13.63,5.57 c6.67,2.23,12.35,4.59,18.27,5.97c5.25,1.22,6.97,3.87,6.64,9.04c-0.38,6.04-0.08,12.12-0.07,18.18c0.63,1.09,1.27,2.19,1.9,3.28 C539.89,3298.84,553.88,3296.98,572.09,3308.96z M261.72,3250.45c0.01,5.57-0.52,9.53,0.11,13.31 c1.73,10.26-1.79,16.04-12.51,17.68c-3.81,0.58-8.19,1.39-12.03,5c6.58,2.2,12.22,4.53,18.08,5.91c5.26,1.23,6.69,3.95,6.52,9.07 c-0.19,6.1-0.96,12.36,1.03,19.86c4.62-6.35,8.57-11.4,12.08-16.74c2.44-3.7,4.91-4.58,9.19-2.87c6.15,2.45,12.63,4.07,20.89,6.64 c-5.07-7.04-8.69-12.68-12.95-17.78c-2.89-3.46-3.03-5.91-0.11-9.44c4.25-5.13,7.87-10.78,12.79-17.64 c-9.5,2.89-17.82,8.12-24.99,6.87C271.81,3268.92,269.84,3257.34,261.72,3250.45z M263.35,2776.1c-0.69,0.94-1.39,1.88-2.08,2.82 c0.01,6.07-0.34,12.16,0.12,18.2c0.41,5.28-1.62,7.54-6.6,9.04c-5.83,1.75-12.15,2.71-20.18,8.4 c24.88-0.42,29.84,12.55,26.88,31.28c-0.02,0.11,0.48,0.29,1.52,0.89c4.86-6.28,8.58-15.41,15.09-18.33 c6.93-3.11,15.35,3.87,23.33,5.7c0.47,0.11,1.06-0.3,2.11-0.62c-3.85-5.35-7.2-10.9-11.45-15.65c-3.72-4.15-3.09-7.07,0.17-10.96 c4.02-4.81,7.44-10.13,11.11-15.22C284.63,2801.66,271.07,2798.12,263.35,2776.1z M237.09,3128.68c6.05,1.97,12.02,4.24,18.18,5.81 c5.07,1.29,6.86,3.89,6.46,9.1c-0.47,6.18-0.1,12.42-0.09,21.27c5.03-6.79,8.67-10.95,11.44-15.63c3.38-5.71,7.07-7.48,13.49-4.48 c5.08,2.37,10.81,3.37,16.24,4.98c0.88-0.3,1.75-0.59,2.63-0.89c-18.66-13.59-16.64-27.25-2.57-40.98 c0.16-0.16,0.09-0.55,0.24-1.78c-6.41,2.05-12.6,3.62-18.45,6.02c-4.92,2.02-7.67,0.85-10.39-3.56 c-3.28-5.31-7.36-10.13-11.09-15.16c-0.92-0.28-1.85-0.57-2.77-0.85C266.76,3114.6,258.16,3125.63,237.09,3128.68z M236.13,2655.42 c21.92,0.97,28.68,12.72,25.15,32.03c-0.06,0.35,0.6,0.84,2.09,2.81c7.5-20.53,20.9-24.87,39.82-13.13 c-3.6-6.69-6.7-11.95-10.74-16.33c-4.27-4.63-3.58-8.12,0.17-12.5c3.8-4.43,6.95-9.42,11.85-16.2c-7.84,2.54-13.16,3.91-18.2,5.99 c-5.82,2.41-9.85,2.06-13.42-4.05c-2.89-4.95-5.98-10.23-13.82-16.09C267.64,2642.33,256.01,2650.84,236.13,2655.42z M303.52,3467.27c0.06-1.02,0.12-2.03,0.18-3.05c-1.01-1.52-1.96-3.07-3.02-4.55c-11.54-16.08-11.52-16.06-0.54-31.76 c1.08-1.55,3.25-2.74,2.54-5.37c-4.25-0.31-8.03,1.38-11.48,3.06c-8.92,4.36-15.39,3.04-20.07-6.25 c-1.92-3.81-5.07-6.99-9.27-12.61c0.01,9.24-0.37,15.37,0.14,21.42c0.44,5.27-1.52,7.69-6.5,9.09c-6.08,1.71-12.45,2.91-18.29,6.81 c3.99,1.4,7.43,2.68,10.92,3.82c13.78,4.54,13.78,4.52,13.79,19.3c0,3.53,0.01,7.05,0.01,10.58c0.58,0.76,1.15,1.52,1.73,2.28 C271.71,3459.56,284.32,3453.22,303.52,3467.27z M263.31,2933.71c-0.63,0.85-1.26,1.71-1.9,2.56c0.01,5.38-0.44,10.82,0.13,16.14 c0.74,6.91-1.29,10.58-8.59,12.17c-5.29,1.16-11.09,2.21-16.06,6.31c6.47,2.16,12.18,4.56,18.12,5.91 c5.34,1.22,6.84,3.98,6.53,9.09c-0.37,6.21-0.08,12.45-0.07,21.35c5.5-7.55,9.56-12.53,12.94-17.93c2.59-4.16,5.25-4.73,9.78-3.18 c6.05,2.07,11.97,5.12,19.41,5.32c-5.23-7.56-13.53-14.31-13.61-21.14c-0.07-6.83,8.08-13.76,12.62-20.64 C284.52,2959.4,271.02,2955.25,263.31,2933.71z M464.63,3083.24c4.88-6.31,8.63-15.47,15.17-18.41c6.96-3.12,15.37,3.96,23.38,5.76 c0.5,0.11,1.1-0.26,2.13-0.54c-3.88-5.37-7.29-10.9-11.52-15.71c-3.64-4.13-3.13-7.15,0.14-11.07c4.04-4.84,7.51-10.15,12.35-16.81 c-8,2.47-14.33,3.82-20.1,6.39c-5.18,2.31-7.81,0.65-10.58-3.5c-3.43-5.15-7.39-9.95-12.66-16.95c0.01,8.93-0.33,15.03,0.12,21.06 c0.39,5.19-1.34,7.62-6.47,9.12c-5.85,1.71-12.2,2.68-20.08,8.36c24.74-0.33,29.68,12.67,26.65,31.42 C463.14,3082.48,463.63,3082.67,464.63,3083.24z M438.73,2992.09c-4.68-6.44-8.16-11.77-12.21-16.62 c-3.06-3.67-3.39-6.53-0.23-10.38c3.91-4.76,7.17-10.05,11.57-16.33c-3.07,0.41-4.3,0.41-5.43,0.74 c-20.13,5.86-20.12,5.86-32.54-10.62c-0.84-1.12-1.22-2.82-3.92-2.8c0.01,6.38-0.35,12.75,0.14,19.06 c0.38,4.89-1.45,7.05-5.97,8.42c-6.38,1.93-13.08,3.17-19.43,7.11c7.01,2.26,13.37,4.55,19.87,6.34c4.28,1.18,5.81,3.4,5.55,7.86 c-0.39,6.53-0.09,13.09-0.08,21.51c2.35-2.92,3.32-4.05,4.21-5.24c12.28-16.54,12.28-16.54,32.5-10.35 C434.13,2991.21,435.6,2991.41,438.73,2992.09z M397.62,3478.54c4.09-5.57,8.09-10.31,11.25-15.55c2.76-4.57,5.76-5.37,10.57-3.49 c5.88,2.3,12.02,3.93,18.05,5.85c0.92-0.33,1.85-0.66,2.77-0.99c-19.32-13.45-15.89-27.33-2.93-41.78 c-6.35-0.24-11.63,2.52-16.89,4.5c-5.61,2.11-8.97,1.42-12.1-3.93c-2.97-5.08-7.02-9.54-10.6-14.26c-0.91-0.25-1.83-0.51-2.74-0.76 c7.54,22.32-3.19,31.44-22.09,34.7c-0.36,0.06-0.6,0.77-1.83,2.45c22.52-0.3,29.05,11.89,25.57,31.59 C396.62,3477.08,396.91,3477.33,397.62,3478.54z M436.84,2675.16c-4.68-7.19-12.67-14.07-12.62-20.9 c0.05-6.9,8.07-13.74,13.36-21.75c-4.39,1.35-7.84,2.35-11.25,3.47c-14.11,4.61-14.04,4.58-22.63-6.99 c-2.24-3.02-3.63-6.91-9.4-9.67c7.36,22.22-2.91,31.63-22.32,34.42c-0.93,0.13-1.04,0.64,0.9,2.15c4.63,1.5,10.66,3.69,16.84,5.39 c4.46,1.22,6.51,3.27,6.12,8.27c-0.51,6.42-0.11,12.92-0.11,19.39c0.72,0.59,1.44,1.18,2.17,1.77 c6.66-21.06,19.71-23.88,36.89-15.02C434.98,2675.78,435.35,2675.55,436.84,2675.16z M371.59,3127.67c0.2,0.23,0.36,0.59,0.61,0.68 c7.75,2.81,18.55,3.45,22.43,8.97c4.1,5.82,1.6,16.27,2.05,26.34c4.51-6.06,8.47-10.65,11.57-15.77c2.96-4.88,6.12-5.64,11.41-3.76 c5.47,1.94,10.86,5.07,17.9,4.46c-4.92-7.27-12.37-13.55-12.98-20.44c-0.67-7.6,8.99-13.13,12.59-20.56 c0.09-0.18-0.07-0.48-0.27-1.51c-6.13,1.95-12.3,3.59-18.21,5.9c-4.49,1.76-7.22,0.91-9.83-3.18c-3.46-5.43-7.57-10.46-11.39-15.66 c-1.89,9.17,1.16,19.58-2.73,25.1c-3.89,5.52-14.73,6.13-22.52,8.92C371.98,3127.25,371.8,3127.5,371.59,3127.67z M171.53,3306.92 c-18.78-13.52-17.18-27.25-2.68-41.19c0.24-0.23,0.08-0.87,0.14-1.83c-3.71,1.2-7.17,2.31-10.63,3.42 c-14.05,4.54-14.04,4.53-22.59-7.1c-2.19-2.97-4.42-5.92-7.99-10.7c0.01,8.59-0.33,14.46,0.12,20.26c0.42,5.46-1.14,8.46-6.86,9.77 c-5.98,1.37-11.7,3.86-19.54,6.54c6.93,2.29,11.45,4.33,16.18,5.23c7.94,1.51,11.54,5.32,10.29,13.75 c-0.72,4.89-0.12,9.98-0.12,14.98c0.68,0.68,1.35,1.36,2.03,2.04c7.12-22.9,21.43-22.94,38.44-14.42 C168.52,3307.79,168.89,3307.56,171.53,3306.92z M168.23,2790.68c-5.51,1.77-11.18,3.16-16.48,5.42c-5.7,2.43-9.51,1.92-12.79-3.94 c-2.81-5.01-6.83-9.35-11.64-15.74c0.01,8.76-0.25,14.92,0.1,21.05c0.27,4.73-1.19,7.02-6.02,8.5c-6.13,1.88-12.75,2.97-19.27,7.29 c6.44,2.04,11.58,4.11,16.92,5.25c6.55,1.39,9.23,4.62,8.45,11.47c-0.63,5.53-0.12,11.19-0.11,19.06 c5.24-7.1,9.21-11.79,12.39-16.97c2.81-4.57,5.71-5.28,10.61-3.25c5.87,2.44,12.17,3.85,18.28,5.71 C152.79,2819.61,152.73,2805.62,168.23,2790.68z M599.04,3083.18c5.12-6.64,8.76-15.62,15.17-18.53c6.61-3,14.83,3.7,22.48,5.65 c0.81,0.21,1.73,0.03,3.19,0.03c-4.06-5.59-7.58-11.01-11.7-15.94c-3.39-4.06-3.27-7.24,0.07-11.26 c4.03-4.85,7.44-10.21,12.13-16.76c-7.78,2.42-14.08,3.85-19.91,6.36c-5.07,2.19-7.77,0.88-10.53-3.47 c-3.29-5.2-7.27-9.97-12.32-16.77c0.01,8.17-0.52,13.74,0.15,19.16c0.87,6.96-2.11,9.89-8.49,11.43 c-5.34,1.29-10.97,2.39-18.34,7.74c24.53-0.25,29.85,12.53,26.98,31.31C597.88,3082.29,598.27,3082.5,599.04,3083.18z M329.43,3085.04c4.75-6.47,8.56-10.89,11.47-15.83c3.12-5.31,6.63-6.02,12.09-3.68c5.52,2.36,11.47,3.72,19.01,6.07 c-4.82-6.67-8.25-12.06-12.35-16.91c-3.4-4.02-3.47-7.16-0.08-11.22c4.08-4.87,7.54-10.24,12.35-16.88 c-7.79,2.42-14.03,3.89-19.87,6.32c-4.87,2.03-7.76,1.41-10.59-3.24c-3.22-5.28-7.33-10-12.5-16.9c0.01,8.71-0.37,14.83,0.14,20.88 c0.46,5.41-1.77,7.66-6.74,8.95c-5.98,1.55-11.75,3.89-19.75,6.61c3.76,1.22,5.15,1.66,6.53,2.12c19.57,6.59,19.57,6.59,19.9,26.93 C329.05,3079.78,329.2,3081.28,329.43,3085.04z"></path> <path class="st2" d="M1319.78,3521.49c-29.29,0.02-58.58-0.14-87.87,0.21c-6.27,0.07-9.24-1.28-8.2-7.99 c0.37-2.41,0.06-4.92,0.05-7.38c-0.74-779.76-1.49-1559.53-2.24-2339.29c0-4-0.14-8-0.21-12.01c30.22-0.03,60.44,0.06,90.66-0.21 c4.63-0.04,6.45,1.04,5.58,5.67c-0.17,0.89-0.02,1.84-0.02,2.77C1318.28,1949.34,1319.03,2735.42,1319.78,3521.49z"></path> <path class="st2" d="M934.52,1155.31c-0.24,4.28-0.71,8.55-0.7,12.83c0.71,780.52,1.46,1561.04,2.2,2341.56 c0.01,12.15,0.01,12.15-12.21,12.16c-25.29,0.02-50.57-0.14-75.86,0.21c-5.94,0.08-8.6-1.4-7.59-7.56c0.24-1.5,0.03-3.08,0.03-4.62 c-0.75-781.44-1.49-1562.89-2.23-2344.33c0-3.39,0.1-6.77,0.15-10.16C870.38,1155.37,902.45,1155.34,934.52,1155.31z"></path> <path class="st2" d="M1125.09,1155.13c0.09,3.69,0.26,7.38,0.27,11.08c0.76,781.11,1.5,1562.21,2.25,2343.32 c0.01,12.14,0.01,12.14-12.08,12.15c-25.29,0.02-50.57-0.16-75.85,0.22c-6.23,0.1-8.32-1.87-7.48-7.77 c0.26-1.81,0.04-3.69,0.03-5.54c-0.75-780.49-1.49-1560.98-2.2-2341.47c0-3.97,0.46-7.93,0.71-11.9 C1062.19,1155.19,1093.64,1155.16,1125.09,1155.13z"></path> <path class="st2" d="M167.83,2575.67c-32,0.13-64.01,0.26-96.01,0.4c-0.45-470.54-0.88-941.07-1.52-1411.61 c-0.01-6.93,1.54-8.62,8.49-8.52c29.29,0.42,58.59,0.13,87.88,0.11c-0.07,2.77-0.2,5.54-0.2,8.31 C166.92,1634.79,167.38,2105.23,167.83,2575.67z"></path> <path class="st2" d="M551.2,2575.29c-31.88,0.02-63.75,0.05-95.63,0.07c-0.45-469.23-0.9-938.47-1.39-1407.7 c0-3.97-0.47-7.93-0.73-11.9c32.07-0.03,64.14-0.06,96.21-0.09c0.06,3.69,0.17,7.39,0.17,11.08 C550.3,1636.27,550.75,2105.78,551.2,2575.29z"></path> <path class="st0" d="M453.46,1155.77c0.25,3.97,0.72,7.93,0.73,11.9c0.48,469.23,0.93,938.47,1.39,1407.7 c-32.08,0.02-64.15,0.04-96.23,0.06c-0.44-470.15-0.88-940.29-1.36-1410.44c0-3.04-0.48-6.08-0.73-9.12 C389.32,1155.83,421.39,1155.8,453.46,1155.77z"></path> <path class="st0" d="M167.83,2575.67c-0.45-470.44-0.9-940.88-1.35-1411.31c0-2.77,0.13-5.54,0.2-8.31 c32.07-0.03,64.14-0.06,96.21-0.09c-0.09,3.38-0.25,6.77-0.25,10.15c0.44,469.82,0.89,939.64,1.34,1409.45 C231.93,2575.59,199.88,2575.63,167.83,2575.67z"></path> <path class="st0" d="M551.2,2575.29c-0.45-469.51-0.9-939.02-1.36-1408.53c0-3.69-0.11-7.39-0.17-11.08 c32.07-0.03,64.14-0.06,96.21-0.09c0.04,1.85,0.1,3.7,0.1,5.54c0.45,471.36,0.89,942.73,1.34,1414.09 C615.28,2575.24,583.24,2575.27,551.2,2575.29z"></path> <path class="st2" d="M647.33,2575.22c-0.45-471.36-0.89-942.73-1.34-1414.09c0-1.85-0.07-3.7-0.1-5.54 c32.07-0.03,64.14-0.06,96.21-0.09c-0.03,4-0.09,8.01-0.08,12.01c0.44,465.62,0.89,931.24,1.32,1396.87 c0,3.69-0.16,7.38-0.25,11.07C711.16,2575.36,679.24,2575.29,647.33,2575.22z"></path> <path class="st2" d="M263.98,2575.55c-0.45-469.82-0.9-939.64-1.34-1409.45c0-3.38,0.16-6.77,0.25-10.15 c31.45-0.03,62.91-0.06,94.36-0.09c0.25,3.04,0.73,6.08,0.73,9.12c0.48,470.15,0.92,940.29,1.36,1410.44 C327.55,2575.47,295.77,2575.51,263.98,2575.55z"></path> <path class="st0" d="M530.56,2848.36c-0.18-3.94-0.29-5.41-0.32-6.88c-0.33-20.33-0.33-20.34-19.9-26.99 c-1.37-0.46-2.74-0.91-6.4-2.12c7.93-2.73,13.69-5.15,19.69-6.65c5.12-1.28,7.05-3.74,6.66-9.02c-0.45-6.05-0.11-12.16-0.12-20.67 c4.82,6.36,8.73,10.53,11.45,15.37c3.42,6.09,7.43,6.88,13.5,4.22c5.21-2.28,10.83-3.62,17.96-5.92 c-5.15,7.21-9.03,13.04-13.35,18.53c-2.35,2.98-2.24,5.11,0.04,8.01c4.31,5.5,8.25,11.3,13.45,18.5 c-7.78-2.4-14.05-3.72-19.77-6.28c-5.51-2.47-8.37-0.63-11.23,3.84C539.09,2837.16,535.43,2841.69,530.56,2848.36z"></path> <path class="st0" d="M572.09,3308.96c-18.21-11.98-32.2-10.13-39.5,13.7c-0.63-1.09-1.27-2.19-1.9-3.28 c-0.01-6.06-0.31-12.15,0.07-18.18c0.33-5.17-1.39-7.82-6.64-9.04c-5.91-1.38-11.6-3.74-18.27-5.97c4.24-3.96,9.28-4.84,13.63-5.57 c9.73-1.62,12.59-6.8,11.26-15.92c-0.61-4.16-0.11-8.49-0.12-15.8c5.24,7.17,9.08,11.96,12.38,17.1c2.74,4.28,5.46,5.68,10.55,3.44 c5.77-2.54,12.05-3.94,19.81-6.37c-4.43,6.29-7.53,11.49-11.43,16c-3.82,4.42-4.51,7.85-0.25,12.52 c4.09,4.49,7.22,9.84,10.78,14.81C572.34,3307.27,572.21,3308.11,572.09,3308.96z"></path> <path class="st0" d="M571.79,2675.04c-6.46,1.62-11.86-2.12-17.39-4.06c-6.03-2.12-9.62-1.36-12.85,4.2 c-2.74,4.71-6.35,8.9-10.3,14.32c-1.97-7.16-1.39-13.22-1-19.08c0.39-5.85-2.13-8.21-7.23-9.6c-5.86-1.59-11.58-3.7-17.66-5.67 c0.68-0.96,0.85-1.49,1.19-1.64c7.53-3.25,18.46-2.55,22.26-9.2c3.4-5.95,0.7-15.37,2.76-23.96c3.71,4.9,7.89,9.51,10.98,14.77 c2.78,4.74,5.72,5.22,10.43,3.34c5.62-2.25,11.52-3.84,20.06-6.62c-4.72,6.56-7.6,11.34-11.24,15.44c-4.28,4.83-5,8.85-0.28,13.94 c3.94,4.25,6.97,9.33,10.41,14.04L571.79,2675.04z"></path> <path class="st0" d="M572.24,3148.35c-6.46,1.62-11.86-2.12-17.39-4.06c-6.03-2.11-9.62-1.36-12.85,4.2 c-2.74,4.7-6.35,8.9-10.3,14.32c-1.97-7.16-1.39-13.22-1-19.07c0.39-5.85-2.13-8.21-7.23-9.6c-5.86-1.59-11.58-3.7-17.66-5.67 c0.68-0.96,0.85-1.49,1.19-1.64c7.53-3.25,18.46-2.55,22.26-9.19c3.4-5.95,0.7-15.37,2.76-23.96c3.71,4.9,7.89,9.51,10.98,14.77 c2.78,4.74,5.72,5.22,10.43,3.34c5.63-2.25,11.52-3.84,20.06-6.62c-4.71,6.56-7.6,11.33-11.23,15.44c-4.28,4.83-5,8.85-0.28,13.94 c3.94,4.25,6.97,9.33,10.41,14.04C572.37,3148.57,572.24,3148.35,572.24,3148.35z"></path> <path class="st0" d="M261.72,3250.45c8.12,6.89,10.09,18.48,18.11,19.88c7.18,1.26,15.49-3.98,24.99-6.87 c-4.92,6.86-8.55,12.51-12.79,17.64c-2.92,3.53-2.77,5.97,0.11,9.44c4.26,5.1,7.88,10.74,12.95,17.78 c-8.26-2.57-14.74-4.18-20.89-6.64c-4.29-1.71-6.76-0.83-9.19,2.87c-3.51,5.33-7.46,10.38-12.08,16.74 c-1.99-7.49-1.22-13.76-1.03-19.86c0.16-5.12-1.26-7.84-6.52-9.07c-5.86-1.38-11.5-3.71-18.08-5.91c3.84-3.61,8.22-4.42,12.03-5 c10.72-1.64,14.24-7.42,12.51-17.68C261.2,3259.98,261.72,3256.01,261.72,3250.45z"></path> <path class="st0" d="M263.35,2776.1c7.72,22.01,21.28,25.55,40,15.53c-3.68,5.1-7.09,10.42-11.11,15.22 c-3.26,3.89-3.89,6.81-0.17,10.96c4.25,4.75,7.6,10.3,11.45,15.65c-1.04,0.32-1.63,0.73-2.11,0.62c-7.97-1.83-16.39-8.8-23.33-5.7 c-6.51,2.92-10.23,12.05-15.09,18.33c-1.03-0.6-1.53-0.78-1.52-0.89c2.97-18.74-2-31.71-26.88-31.28 c8.04-5.68,14.35-6.65,20.18-8.4c4.98-1.49,7.01-3.75,6.6-9.04c-0.47-6.03-0.12-12.13-0.12-18.2 C261.96,2777.98,262.66,2777.04,263.35,2776.1z"></path> <path class="st0" d="M572.68,3422.53c-4.91,7.03-13.42,13.93-13.68,21.13c-0.23,6.55,8.5,13.41,13.91,21.02 c-7.49-0.52-13.27-3.21-19.12-5.32c-4.67-1.69-7.73-1.57-10.51,3.27c-3.02,5.26-7.08,9.91-11.38,15.77 c-1.87-7.35-1.12-13.7-0.95-19.92c0.13-4.88-1.6-7.22-6.25-8.46c-6.2-1.65-12.24-3.91-18.95-6.11c5.45-4.01,11.53-5.05,17.23-6.56 c6.1-1.62,8.66-4.47,7.94-10.94c-0.61-5.41-0.13-10.93,1.64-17.22c3.44,4.73,7.12,9.31,10.26,14.23c2.95,4.62,6.17,5.53,11.47,3.76 c5.89-1.97,11.47-5.96,18.26-4.42L572.68,3422.53z"></path> <path class="st0" d="M572.23,2949.22c-4.91,7.03-13.42,13.93-13.68,21.13c-0.23,6.55,8.5,13.41,13.91,21.02 c-7.49-0.52-13.27-3.21-19.12-5.32c-4.67-1.69-7.73-1.57-10.51,3.27c-3.02,5.26-7.09,9.92-11.38,15.77 c-1.87-7.35-1.12-13.7-0.95-19.92c0.13-4.88-1.6-7.22-6.25-8.46c-6.2-1.65-12.24-3.91-18.95-6.11c5.45-4.01,11.53-5.05,17.23-6.56 c6.1-1.62,8.66-4.47,7.94-10.94c-0.61-5.4-0.13-10.93,1.64-17.22c3.44,4.73,7.12,9.31,10.26,14.23c2.95,4.62,6.17,5.53,11.47,3.76 c5.89-1.97,11.47-5.96,18.26-4.42L572.23,2949.22z"></path> <path class="st0" d="M237.09,3128.68c21.07-3.05,29.67-14.07,23.32-36.15c0.92,0.28,1.85,0.57,2.77,0.85 c3.73,5.03,7.82,9.85,11.09,15.16c2.72,4.41,5.48,5.57,10.39,3.56c5.85-2.4,12.04-3.97,18.45-6.02c-0.16,1.23-0.08,1.62-0.24,1.78 c-14.07,13.73-16.09,27.39,2.57,40.98c-0.88,0.3-1.75,0.59-2.63,0.89c-5.44-1.61-11.16-2.61-16.24-4.98 c-6.42-3-10.12-1.22-13.49,4.48c-2.77,4.68-6.41,8.84-11.44,15.63c-0.01-8.85-0.38-15.09,0.09-21.27c0.4-5.21-1.39-7.81-6.46-9.1 C249.12,3132.91,243.14,3130.64,237.09,3128.68z"></path> <path class="st0" d="M236.13,2655.42c19.88-4.59,31.51-13.1,22.92-37.46c7.83,5.86,10.93,11.14,13.82,16.09 c3.57,6.11,7.6,6.46,13.42,4.05c5.03-2.08,10.36-3.45,18.2-5.99c-4.91,6.78-8.06,11.77-11.85,16.2c-3.75,4.38-4.44,7.87-0.17,12.5 c4.04,4.38,7.14,9.63,10.74,16.33c-18.92-11.74-32.32-7.4-39.82,13.13c-1.5-1.96-2.16-2.45-2.09-2.81 C264.81,2668.14,258.06,2656.39,236.13,2655.42z"></path> <path class="st0" d="M303.52,3467.27c-19.2-14.05-31.81-7.71-39.85,12.77c-0.58-0.76-1.15-1.52-1.73-2.28 c0-3.53-0.01-7.05-0.01-10.58c-0.01-14.77-0.02-14.76-13.79-19.3c-3.49-1.15-6.93-2.42-10.92-3.82c5.84-3.9,12.21-5.1,18.29-6.81 c4.98-1.4,6.94-3.82,6.5-9.09c-0.5-6.05-0.13-12.17-0.14-21.42c4.2,5.62,7.35,8.8,9.27,12.61c4.67,9.28,11.15,10.6,20.07,6.25 c3.45-1.68,7.23-3.37,11.48-3.06c0.71,2.62-1.46,3.82-2.54,5.37c-10.98,15.7-11,15.68,0.54,31.76c1.06,1.48,2.02,3.03,3.02,4.55 C303.64,3465.24,303.58,3466.25,303.52,3467.27z"></path> <path class="st0" d="M263.31,2933.71c7.71,21.54,21.2,25.69,39.31,15.96c-4.55,6.88-12.7,13.81-12.62,20.64 c0.07,6.83,8.37,13.58,13.61,21.14c-7.44-0.2-13.36-3.25-19.41-5.32c-4.53-1.55-7.19-0.98-9.78,3.18 c-3.37,5.41-7.43,10.38-12.94,17.93c-0.01-8.9-0.3-15.15,0.07-21.35c0.31-5.11-1.19-7.87-6.53-9.09 c-5.94-1.36-11.65-3.75-18.12-5.91c4.97-4.09,10.77-5.15,16.06-6.31c7.29-1.59,9.33-5.26,8.59-12.17 c-0.57-5.32-0.12-10.76-0.13-16.14C262.05,2935.42,262.68,2934.56,263.31,2933.71z"></path> <path class="st0" d="M464.63,3083.24c-1-0.57-1.49-0.76-1.47-0.86c3.03-18.76-1.92-31.76-26.65-31.42 c7.88-5.69,14.23-6.65,20.08-8.36c5.13-1.5,6.86-3.93,6.47-9.12c-0.45-6.04-0.11-12.13-0.12-21.06c5.27,6.99,9.23,11.8,12.66,16.95 c2.77,4.16,5.4,5.81,10.58,3.5c5.77-2.57,12.1-3.92,20.1-6.39c-4.84,6.66-8.32,11.97-12.35,16.81c-3.26,3.92-3.77,6.93-0.14,11.07 c4.23,4.81,7.64,10.34,11.52,15.71c-1.03,0.27-1.63,0.65-2.13,0.54c-8-1.8-16.42-8.89-23.38-5.76 C473.25,3067.77,469.51,3076.93,464.63,3083.24z"></path> <path class="st0" d="M503.39,3185.58c0.9,4.63-2.8,7.35-5.25,9.74c-8.31,8.1-7.66,15.31,0.3,23.03c2.59,2.51,4.37,5.87,7.1,9.64 c-7.63-0.25-13.6-3.28-19.68-5.4c-4.56-1.59-7.2-0.91-9.78,3.19c-3.4,5.4-7.42,10.41-12.92,18c-0.01-8.62-0.34-14.56,0.07-20.44 c0.41-5.73-0.99-9.09-7.29-10.33c-5.89-1.17-11.51-3.7-18.94-6.21c7.87-2.59,14.16-4.88,20.59-6.7c4.18-1.18,5.89-3.29,5.62-7.77 c-0.39-6.42-0.11-12.88-0.12-20.34c6.04,3.61,8.59,9.28,11.79,14.06c3.48,5.2,6.81,6.63,12.83,4.22c5.02-2,10.13-4.47,15.81-4.47 L503.39,3185.58z"></path> <path class="st0" d="M503.71,3385.42c-5.7,0.07-10.9-2.29-15.82-4.44c-6.74-2.94-10.06-0.27-13.35,4.99 c-2.86,4.58-6.3,8.8-11.25,12.66c-0.01-6.28-0.46-12.6,0.12-18.83c0.5-5.45-1.83-7.58-6.63-8.94c-6.12-1.73-12.49-3-20.37-7.8 c23.67-0.58,31.96-11.82,25.68-33.8c0.92,0.12,1.84,0.25,2.76,0.37c3.85,5.28,8,10.36,11.44,15.89c2.61,4.2,5.35,4.82,9.78,3.07 c5.92-2.33,12.11-3.97,20.36-6.61c-5.13,7.17-8.69,12.74-12.88,17.79c-2.96,3.56-2.4,5.98,0.08,9.52c3.64,5.21,9.13,9.4,9.96,16.34 L503.71,3385.42z"></path> <path class="st0" d="M502.93,2712.27c0.9,4.63-2.8,7.35-5.25,9.74c-8.31,8.1-7.66,15.31,0.3,23.03c2.59,2.52,4.37,5.87,7.1,9.64 c-7.63-0.25-13.6-3.28-19.68-5.4c-4.56-1.59-7.2-0.91-9.78,3.19c-3.39,5.4-7.42,10.41-12.92,17.99 c-0.01-8.62-0.34-14.56,0.07-20.44c0.41-5.73-0.99-9.08-7.29-10.33c-5.89-1.17-11.51-3.7-18.94-6.21 c7.87-2.59,14.16-4.88,20.58-6.7c4.18-1.18,5.88-3.29,5.62-7.77c-0.39-6.42-0.11-12.88-0.12-20.34c6.04,3.61,8.59,9.28,11.79,14.06 c3.48,5.2,6.81,6.63,12.83,4.22c5.02-2,10.13-4.47,15.81-4.47L502.93,2712.27z"></path> <path class="st0" d="M503.26,2912.11c-16.82-6.64-32.06-8.58-38.11,16.96c-0.77-1.25-1.54-2.5-2.31-3.75 c-0.01-6.28-0.46-12.6,0.12-18.83c0.5-5.45-1.83-7.58-6.63-8.94c-6.12-1.73-12.49-3-20.37-7.8c23.67-0.58,31.96-11.82,25.68-33.8 c0.92,0.12,1.84,0.25,2.76,0.37c3.85,5.28,8,10.36,11.44,15.89c2.61,4.2,5.35,4.82,9.78,3.07c5.92-2.33,12.11-3.97,20.36-6.61 c-5.13,7.17-8.69,12.74-12.88,17.79c-2.96,3.56-2.4,5.98,0.08,9.52c3.64,5.21,9.13,9.4,9.96,16.34L503.26,2912.11z"></path> <path class="st0" d="M235.45,3385.65c-6.31,0.05-11.85-2.88-17.56-4.88c-4.91-1.72-7.86-0.88-10.61,3.63 c-3.16,5.18-7.12,9.89-12.43,17.1c-0.01-8.12-0.46-13.76,0.1-19.31c0.66-6.52-1.4-10.02-8.09-11.42 c-5.62-1.17-10.98-3.55-16.74-5.5c0.73-0.86,1-1.48,1.33-1.52c19.91-2.39,28.84-12.73,22.08-34.52c0.9,0.3,1.8,0.61,2.7,0.91 c3.94,5.29,8.09,10.45,11.76,15.93c2.43,3.62,4.73,4.69,9.05,2.89c5.87-2.45,12.13-3.99,20.53-6.65c-3.28,4.75-5.29,7.8-7.44,10.75 c-8.47,11.63-8.38,11.54,0.19,23.67c1.97,2.79,5.6,4.87,4.99,9.13L235.45,3385.65z"></path> <path class="st0" d="M235,2912.34c-6.31,0.05-11.85-2.88-17.56-4.88c-4.91-1.72-7.86-0.88-10.61,3.63 c-3.16,5.18-7.12,9.89-12.43,17.1c-0.01-8.12-0.46-13.76,0.1-19.3c0.66-6.52-1.4-10.02-8.09-11.42c-5.61-1.17-10.97-3.55-16.74-5.5 c0.73-0.86,0.99-1.47,1.33-1.52c19.39-2.77,29.93-11.94,21.43-34.99c1.12,0.46,2.23,0.92,3.35,1.38 c3.94,5.29,8.09,10.45,11.76,15.93c2.43,3.62,4.73,4.69,9.05,2.89c5.87-2.45,12.13-3.99,20.53-6.65c-3.28,4.75-5.29,7.8-7.44,10.75 c-8.47,11.63-8.38,11.54,0.19,23.67c1.97,2.79,5.6,4.87,4.99,9.13L235,2912.34z"></path> <path class="st0" d="M704.72,2675.25c-2.08-0.38-4.22-0.56-6.22-1.18c-17.66-5.47-17.64-5.49-28.92,9.8 c-1.25,1.69-2.59,3.31-5.44,6.94c-0.01-6.2-0.63-10.4,0.1-14.35c2.04-11.02-2.7-16.26-13.32-17.82c-3.83-0.56-7.47-2.45-11.8-3.94 c1.02-0.81,1.37-1.33,1.78-1.37c20.16-2.27,28.63-12.99,21.91-34.74c0.97,0.34,1.93,0.68,2.9,1.02c3.73,5.11,7.86,9.98,11.09,15.39 c2.79,4.68,5.83,5.2,10.55,3.32c5.65-2.25,11.57-3.85,20-6.58c-4.81,6.71-7.77,11.81-11.69,16.03c-4.56,4.9-3.7,8.49,0.1,13.41 c3.38,4.37,8.5,7.96,8.83,14.3L704.72,2675.25z"></path> <path class="st0" d="M704.83,2948.8c-1.17,6.63-6.25,10.93-9.96,15.91c-2.97,3.98-2.83,6.69,0.17,10.35 c4.06,4.96,7.61,10.34,12.68,17.31c-8.34-2.6-14.84-4.23-21-6.69c-4.25-1.69-6.65-0.92-9.09,2.83 c-3.62,5.54-7.77,10.74-13.19,18.11c-0.01-7.27-0.61-12.15,0.11-16.81c1.41-9.11-2.41-13.45-11.13-14.98 c-4.48-0.79-8.76-2.71-13.92-4.37c5.79-4.03,12.07-4.97,17.92-6.76c4.97-1.52,7.71-3.62,7.1-9.47c-0.63-6.03-0.15-12.18-0.16-20.97 c5.14,6.84,9.31,11.53,12.45,16.83c3.03,5.12,6.36,5.26,11.45,3.51c5.44-1.87,10.7-4.73,16.72-4.64L704.83,2948.8z"></path> <path class="st0" d="M705.17,3148.56c-2.08-0.38-4.22-0.56-6.22-1.18c-17.66-5.47-17.64-5.49-28.92,9.8 c-1.25,1.69-2.59,3.31-5.44,6.94c-0.01-6.2-0.63-10.4,0.1-14.35c2.04-11.02-2.7-16.26-13.32-17.82c-3.84-0.56-7.48-2.45-11.8-3.94 c1.02-0.81,1.37-1.33,1.78-1.37c20.16-2.27,28.63-12.99,21.91-34.74c0.97,0.34,1.93,0.68,2.9,1.02c3.73,5.11,7.86,9.98,11.09,15.39 c2.79,4.68,5.83,5.2,10.55,3.32c5.65-2.25,11.56-3.85,20-6.58c-4.81,6.71-7.77,11.81-11.69,16.03c-4.56,4.9-3.7,8.49,0.1,13.41 c3.38,4.37,8.5,7.96,8.83,14.3L705.17,3148.56z"></path> <path class="st0" d="M705.28,3422.11c-1.17,6.63-6.25,10.93-9.97,15.91c-2.97,3.98-2.83,6.69,0.17,10.35 c4.06,4.96,7.61,10.33,12.68,17.31c-8.34-2.6-14.84-4.23-21-6.69c-4.25-1.69-6.65-0.92-9.09,2.83 c-3.62,5.54-7.77,10.74-13.19,18.11c-0.01-7.27-0.61-12.15,0.11-16.81c1.41-9.11-2.41-13.45-11.13-14.98 c-4.48-0.79-8.76-2.71-13.92-4.37c5.79-4.03,12.07-4.97,17.92-6.76c4.97-1.52,7.71-3.62,7.1-9.47c-0.63-6.04-0.15-12.19-0.16-20.97 c5.14,6.84,9.31,11.53,12.45,16.83c3.03,5.12,6.36,5.26,11.45,3.51c5.44-1.87,10.7-4.73,16.72-4.64L705.28,3422.11z"></path> <path class="st0" d="M704.92,2791.88c-2.83,7.83-12.95,13-12.17,20.62c0.71,6.95,7.91,13.23,12.26,19.8 c-0.35,0.32-0.68,0.65-1.01,0.98c-17.18-8.57-30.74-6.48-37.59,15.3c-0.71-0.72-1.42-1.45-2.13-2.17 c-0.01-5.92-0.39-11.86,0.09-17.74c0.47-5.79-1.1-9.11-7.25-10.38c-5.59-1.16-10.96-3.42-17.51-5.54 c3.87-3.29,7.77-4.16,11.39-4.74c11.1-1.8,15.49-7.73,13.34-18.86c-0.67-3.49-0.11-7.21-0.12-11.89c4.22,2.22,5.63,5.68,7.67,8.42 c9.2,12.37,9.16,12.39,24.15,7.59c2.62-0.84,5.29-1.53,7.94-2.29C704.28,2791.29,704.59,2791.59,704.92,2791.88z"></path> <path class="st0" d="M438.73,2992.09c-3.13-0.67-4.6-0.88-6-1.31c-20.22-6.19-20.22-6.19-32.5,10.35 c-0.88,1.19-1.85,2.32-4.21,5.24c-0.01-8.42-0.31-14.99,0.08-21.51c0.27-4.46-1.26-6.68-5.55-7.86c-6.5-1.79-12.86-4.07-19.87-6.34 c6.35-3.94,13.05-5.18,19.43-7.11c4.52-1.37,6.35-3.53,5.97-8.42c-0.49-6.31-0.13-12.68-0.14-19.06c2.7-0.02,3.08,1.69,3.92,2.8 c12.42,16.48,12.41,16.47,32.54,10.62c1.13-0.33,2.36-0.34,5.43-0.74c-4.4,6.28-7.66,11.57-11.57,16.33 c-3.16,3.85-2.83,6.7,0.23,10.38C430.57,2980.32,434.05,2985.65,438.73,2992.09z"></path> <path class="st0" d="M397.62,3478.54c-0.72-1.2-1.01-1.46-0.97-1.66c3.48-19.7-3.05-31.89-25.57-31.59 c1.23-1.68,1.48-2.39,1.83-2.45c18.9-3.26,29.63-12.38,22.09-34.7c0.91,0.25,1.83,0.51,2.74,0.76c3.58,4.73,7.62,9.18,10.6,14.26 c3.13,5.34,6.48,6.04,12.1,3.93c5.26-1.98,10.54-4.74,16.89-4.5c-12.96,14.45-16.39,28.33,2.93,41.78 c-0.92,0.33-1.85,0.66-2.77,0.99c-6.03-1.92-12.17-3.55-18.05-5.85c-4.8-1.88-7.81-1.08-10.57,3.49 C405.71,3468.23,401.71,3472.97,397.62,3478.54z"></path> <path class="st0" d="M705.37,3265.19c-2.83,7.83-12.95,13-12.17,20.62c0.71,6.94,7.91,13.23,12.25,19.8 c-0.35,0.32-0.68,0.65-1.01,0.98c-17.18-8.57-30.74-6.48-37.59,15.3c-0.71-0.72-1.42-1.45-2.13-2.17 c-0.01-5.92-0.39-11.86,0.09-17.74c0.47-5.79-1.1-9.1-7.25-10.38c-5.59-1.16-10.96-3.42-17.51-5.54c3.87-3.29,7.77-4.16,11.39-4.74 c11.1-1.8,15.49-7.73,13.34-18.86c-0.67-3.49-0.11-7.21-0.12-11.89c4.22,2.22,5.63,5.68,7.67,8.42c9.2,12.37,9.16,12.39,24.15,7.59 c2.62-0.84,5.29-1.53,7.94-2.29C704.73,3264.6,705.05,3264.9,705.37,3265.19z"></path> <path class="st0" d="M235.11,3185.91c-1.26,6.59-6.35,10.85-10.02,15.88c-2.86,3.92-2.97,6.66,0.1,10.38 c4.09,4.95,7.62,10.35,11.94,16.29c-7.44-0.58-13.31-3.29-19.25-5.43c-4.69-1.69-7.74-1.48-10.56,3.27 c-3.21,5.4-7.41,10.21-11.38,15.55c-0.69-1.22-1.13-1.66-1.19-2.15c-1.05-8.03,3.59-18.05-2.19-23.7 c-5.15-5.02-14.54-5.7-22.65-8.5c4.31-3.65,9.47-4.64,14.17-5.49c9.09-1.64,11.9-6.5,10.69-15.17c-0.63-4.47-0.12-9.1-0.12-16.38 c4.97,6.6,8.9,11.07,11.95,16.08c3.06,5.02,6.21,6.44,11.99,4.17c5.31-2.08,10.66-4.79,16.68-4.63L235.11,3185.91z"></path> <path class="st0" d="M234.66,2712.6c-1.26,6.59-6.35,10.85-10.02,15.88c-2.86,3.92-2.97,6.66,0.1,10.38 c4.09,4.95,7.62,10.34,11.94,16.29c-7.44-0.58-13.31-3.29-19.25-5.43c-4.69-1.69-7.74-1.48-10.56,3.27 c-3.21,5.4-7.41,10.21-11.38,15.55c-0.69-1.22-1.13-1.66-1.19-2.15c-1.05-8.03,3.59-18.05-2.19-23.7 c-5.15-5.02-14.54-5.7-22.65-8.5c4.31-3.65,9.47-4.64,14.17-5.49c9.09-1.64,11.9-6.5,10.69-15.17c-0.63-4.47-0.12-9.1-0.12-16.38 c4.97,6.6,8.9,11.07,11.95,16.08c3.06,5.02,6.21,6.44,11.99,4.17c5.31-2.08,10.66-4.79,16.68-4.63L234.66,2712.6z"></path> <path class="st0" d="M436.84,2675.16c-1.49,0.39-1.86,0.62-2.06,0.52c-17.18-8.86-30.23-6.04-36.89,15.02 c-0.72-0.59-1.44-1.18-2.17-1.77c-0.01-6.47-0.4-12.96,0.11-19.39c0.4-5-1.66-7.05-6.12-8.27c-6.17-1.69-12.21-3.89-16.84-5.39 c-1.94-1.51-1.83-2.02-0.9-2.15c19.4-2.79,29.67-12.2,22.32-34.42c5.77,2.76,7.16,6.65,9.4,9.67c8.59,11.57,8.52,11.6,22.63,6.99 c3.41-1.11,6.86-2.12,11.25-3.47c-5.29,8.02-13.31,14.85-13.36,21.75C424.16,2661.08,432.16,2667.97,436.84,2675.16z"></path> <path class="st0" d="M371.59,3127.67c0.21-0.17,0.39-0.42,0.63-0.51c7.79-2.78,18.63-3.4,22.52-8.92 c3.89-5.53,0.84-15.94,2.73-25.1c3.83,5.2,7.93,10.23,11.39,15.66c2.61,4.09,5.34,4.94,9.83,3.18c5.9-2.32,12.07-3.95,18.21-5.9 c0.19,1.02,0.35,1.32,0.27,1.51c-3.6,7.44-13.26,12.96-12.59,20.56c0.61,6.89,8.06,13.17,12.98,20.44 c-7.04,0.6-12.43-2.52-17.9-4.46c-5.28-1.88-8.45-1.11-11.41,3.76c-3.1,5.12-7.07,9.71-11.57,15.77 c-0.46-10.07,2.04-20.52-2.05-26.34c-3.88-5.51-14.68-6.16-22.43-8.97C371.95,3128.26,371.79,3127.91,371.59,3127.67z"></path> <path class="st0" d="M235.12,3028.92c-2.8,7.86-12.92,13.06-12.15,20.69c0.7,6.96,7.9,13.27,12.24,19.87 c-0.34,0.3-0.67,0.6-0.98,0.92c-8.11-1.04-16.32-8.54-23.36-5.1c-6.36,3.11-9.91,11.94-16.32,20.38 c-0.01-8.46-0.35-14.7,0.08-20.88c0.36-5.17-1.23-7.8-6.49-9.01c-5.87-1.35-11.51-3.7-18.32-5.97c6.15-4.24,12.44-5.35,18.31-7.03 c5.12-1.46,6.87-3.86,6.47-9.06c-0.46-6.03-0.12-12.13-0.13-20.96c5,6.65,8.83,11.15,11.97,16.09c3.08,4.85,6.24,6.62,11.99,4.02 c4.96-2.24,10.5-3.19,15.79-4.71C234.52,3028.42,234.82,3028.67,235.12,3028.92z"></path> <path class="st0" d="M171.53,3306.92c-2.63,0.64-3.01,0.86-3.22,0.76c-17.02-8.52-31.32-8.48-38.44,14.42 c-0.68-0.68-1.35-1.36-2.03-2.04c0-5-0.61-10.08,0.12-14.98c1.25-8.43-2.35-12.25-10.29-13.75c-4.73-0.9-9.25-2.94-16.18-5.23 c7.84-2.69,13.56-5.17,19.54-6.54c5.72-1.31,7.28-4.31,6.86-9.77c-0.44-5.8-0.11-11.67-0.12-20.26c3.58,4.78,5.81,7.72,7.99,10.7 c8.55,11.64,8.55,11.64,22.59,7.1c3.46-1.12,6.92-2.23,10.63-3.42c-0.06,0.96,0.1,1.6-0.14,1.83 C154.34,3279.67,152.74,3293.4,171.53,3306.92z"></path> <path class="st0" d="M168.23,2790.68c-15.5,14.94-15.44,28.94,0.43,43.85c-6.11-1.86-12.4-3.27-18.28-5.71 c-4.9-2.03-7.8-1.32-10.61,3.25c-3.18,5.17-7.15,9.87-12.39,16.97c-0.01-7.87-0.52-13.53,0.11-19.06 c0.78-6.85-1.9-10.08-8.45-11.47c-5.34-1.14-10.48-3.21-16.92-5.25c6.52-4.32,13.14-5.41,19.27-7.29c4.83-1.48,6.29-3.77,6.02-8.5 c-0.35-6.13-0.1-12.29-0.1-21.05c4.81,6.39,8.83,10.73,11.64,15.74c3.28,5.86,7.09,6.36,12.79,3.94 C157.06,2793.84,162.73,2792.45,168.23,2790.68z"></path> <path class="st0" d="M599.04,3083.18c-0.76-0.68-1.16-0.89-1.14-1.04c2.87-18.79-2.45-31.57-26.98-31.31 c7.37-5.35,13-6.45,18.34-7.74c6.38-1.54,9.36-4.48,8.49-11.43c-0.68-5.42-0.14-10.99-0.15-19.16c5.05,6.8,9.03,11.57,12.32,16.77 c2.76,4.36,5.46,5.66,10.53,3.47c5.83-2.52,12.13-3.94,19.91-6.36c-4.69,6.55-8.1,11.91-12.13,16.76 c-3.34,4.02-3.45,7.2-0.07,11.26c4.12,4.93,7.65,10.36,11.7,15.94c-1.46,0-2.37,0.18-3.19-0.03c-7.65-1.96-15.88-8.65-22.48-5.65 C607.8,3067.56,604.15,3076.54,599.04,3083.18z"></path> <path class="st0" d="M437.21,3305.9c-6.72,1.86-12.19-2.4-17.99-4.23c-5.2-1.64-7.82-0.68-10.55,3.65 c-3.23,5.13-7.09,9.87-12.34,17.06c-0.01-8.7-0.38-14.97,0.09-21.16c0.41-5.27-1.41-7.74-6.57-8.96 c-5.87-1.39-11.51-3.7-18.33-5.97c6.14-4.33,12.49-5.32,18.35-7.06c5.06-1.5,6.93-3.78,6.51-9.04c-0.49-6.05-0.12-12.17-0.13-20.97 c4.93,6.63,8.73,11.15,11.84,16.1c3.06,4.88,6.11,6.32,11.98,4.13c5.38-2.01,10.71-5.74,17.09-4l-0.22-0.13 c-2.97,7.8-13.05,13.04-12.23,20.76c0.74,7.01,7.93,13.33,12.27,19.96L437.21,3305.9z"></path> <path class="st0" d="M329.43,3085.04c-0.23-3.77-0.37-5.26-0.4-6.76c-0.33-20.33-0.33-20.33-19.9-26.93 c-1.38-0.46-2.76-0.9-6.53-2.12c7.99-2.72,13.77-5.06,19.75-6.61c4.97-1.29,7.2-3.54,6.74-8.95c-0.51-6.05-0.13-12.18-0.14-20.88 c5.17,6.89,9.28,11.62,12.5,16.9c2.83,4.65,5.72,5.26,10.59,3.24c5.84-2.43,12.08-3.9,19.87-6.32c-4.8,6.64-8.27,12.01-12.35,16.88 c-3.39,4.05-3.33,7.19,0.08,11.22c4.09,4.84,7.53,10.24,12.35,16.91c-7.53-2.35-13.48-3.71-19.01-6.07 c-5.47-2.34-8.97-1.63-12.09,3.68C337.99,3074.16,334.18,3078.57,329.43,3085.04z"></path> <path class="st0" d="M639.11,3385c-6.44,1.2-11.9-2.3-17.44-4.33c-5.84-2.14-9.02-0.77-12.08,4.15c-3.02,4.85-6.71,9.3-11.61,15.97 c-0.01-7.93-0.58-13.65,0.13-19.2c0.89-6.97-2.26-9.69-8.45-11.19c-5.59-1.35-10.96-3.58-16.83-5.57c0.94-0.86,1.27-1.42,1.65-1.46 c19.77-2.48,29.03-12.59,22.15-34.47c0.88,0.3,1.75,0.6,2.63,0.9c3.91,5.29,8.06,10.42,11.64,15.92c2.46,3.77,4.91,4.52,9.1,2.85 c5.9-2.35,12.1-3.96,18.1-5.87c1.42,2.76-0.62,3.82-1.54,5.12c-11.72,16.46-11.73,16.43,0.3,33.33c0.86,1.21,1.4,2.66,2.08,4 L639.11,3385z"></path> <path class="st0" d="M638.4,2712.62c-13.05,13.72-17.49,27.47,3.62,42.1c-10.52-0.6-16.54-3.52-22.65-5.64 c-4.28-1.49-6.65-0.92-9.08,2.87c-3.48,5.42-7.52,10.47-12.92,17.86c-0.01-7.08-0.68-12.14,0.13-16.96 c1.49-8.91-2.46-12.79-10.67-14.39c-4.78-0.94-9.37-2.87-14.74-4.58c5.85-3.98,12.12-5.18,18.09-6.77 c5.74-1.53,7.89-4.32,7.27-10.31c-0.6-5.75-0.14-11.61-0.15-19.78c4.97,6.63,9.05,11.37,12.3,16.63c2.79,4.53,5.73,5.17,10.66,3.65 c5.98-1.84,11.51-5.89,18.3-4.54L638.4,2712.62z"></path> <path class="st0" d="M638.85,3185.93c-13.05,13.72-17.49,27.47,3.62,42.1c-10.52-0.6-16.54-3.52-22.65-5.64 c-4.28-1.49-6.65-0.92-9.08,2.87c-3.48,5.42-7.52,10.47-12.92,17.86c-0.01-7.08-0.68-12.14,0.13-16.96 c1.49-8.91-2.46-12.79-10.67-14.39c-4.78-0.94-9.36-2.87-14.74-4.58c5.85-3.98,12.12-5.18,18.09-6.77 c5.74-1.53,7.89-4.33,7.27-10.31c-0.6-5.75-0.14-11.61-0.15-19.78c4.97,6.63,9.05,11.37,12.3,16.63c2.79,4.53,5.73,5.17,10.66,3.65 c5.98-1.84,11.51-5.89,18.3-4.54L638.85,3185.93z"></path> <path class="st0" d="M638.65,2911.69c-6.44,1.2-11.9-2.3-17.44-4.33c-5.84-2.14-9.02-0.77-12.08,4.15 c-3.02,4.85-6.71,9.29-11.61,15.97c-0.01-7.93-0.59-13.65,0.13-19.21c0.89-6.98-2.26-9.69-8.45-11.19 c-5.59-1.35-10.97-3.59-16.83-5.57c0.94-0.86,1.27-1.42,1.65-1.46c19.77-2.48,29.03-12.59,22.15-34.47c0.88,0.3,1.75,0.6,2.63,0.9 c3.91,5.29,8.06,10.42,11.64,15.92c2.46,3.77,4.91,4.52,9.1,2.85c5.9-2.35,12.1-3.96,18.1-5.87c1.42,2.76-0.62,3.82-1.54,5.12 c-11.72,16.45-11.73,16.43,0.3,33.33c0.86,1.21,1.4,2.66,2.08,4L638.65,2911.69z"></path> <path class="st0" d="M436.76,2832.59c-6.72,1.86-12.19-2.4-17.99-4.23c-5.2-1.64-7.82-0.68-10.55,3.65 c-3.23,5.13-7.09,9.87-12.34,17.07c-0.01-8.7-0.38-14.96,0.09-21.16c0.41-5.27-1.41-7.74-6.57-8.96 c-5.87-1.39-11.51-3.71-18.33-5.97c6.14-4.33,12.48-5.32,18.35-7.06c5.06-1.5,6.93-3.78,6.51-9.04 c-0.49-6.05-0.12-12.17-0.13-20.97c4.93,6.63,8.73,11.15,11.84,16.1c3.06,4.88,6.11,6.32,11.97,4.13c5.38-2.01,10.71-5.74,17.09-4 l-0.22-0.13c-2.97,7.8-13.05,13.04-12.23,20.76c0.74,7.01,7.93,13.33,12.27,19.96L436.76,2832.59z"></path> <path class="st0" d="M370.86,3186.27c-4.72,7.1-13.96,13.37-13.45,21.12c0.46,6.95,8.49,13.4,13.4,20.36 c-1.46,0.27-2.2,0.66-2.61,0.44c-16.98-9.31-29.98-6.84-37.08,15.84c-2.75-7.7-2.42-12.63-1.79-17.11 c1.3-9.17-2.53-13.44-11.21-15.04c-4.65-0.86-9.1-2.85-15.72-5c8.04-2.58,14.08-4.74,20.24-6.42c4.87-1.32,7.09-3.68,6.6-9.08 c-0.55-6.05-0.14-12.2-0.14-18.41c1.13,0.2,2,0.14,2.13,0.41c7.75,16.62,19.32,22.02,36.16,12.52c0.76-0.43,2.2,0.35,3.32,0.56 L370.86,3186.27z"></path> <path class="st0" d="M168.91,2949.9c-4.65,6.83-12.87,13.62-12.94,20.49c-0.06,6.77,8.13,13.62,13.22,21.2 c-7.3-0.24-13.23-3.23-19.26-5.31c-4.54-1.56-7.2-0.99-9.77,3.18c-3.21,5.21-7.12,9.98-11.35,15.79 c-2.37-6.84-1.33-13.14-1.11-19.18c0.19-5.24-1.46-7.74-6.53-9.02c-6.22-1.58-12.24-3.92-18.45-5.97c0.54-0.59,0.87-1.29,1.31-1.37 c18.83-3.27,29.61-12.34,22.81-32.49c2.65-1.44,3.07-0.2,3.38,0.43c7.6,15.29,18.1,21.98,34.51,11.96 c1.19-0.72,2.96-0.88,4.24,0.46L168.91,2949.9z"></path> <path class="st0" d="M370.4,2712.96c-4.72,7.1-13.96,13.36-13.45,21.12c0.46,6.94,8.49,13.39,13.4,20.36 c-1.46,0.27-2.2,0.66-2.61,0.44c-16.98-9.31-29.98-6.84-37.08,15.84c-2.75-7.7-2.42-12.63-1.79-17.11 c1.3-9.17-2.53-13.44-11.21-15.04c-4.66-0.86-9.1-2.85-15.72-5c8.04-2.58,14.08-4.74,20.24-6.42c4.87-1.32,7.09-3.68,6.6-9.08 c-0.55-6.06-0.14-12.2-0.14-18.41c1.13,0.2,2,0.14,2.13,0.42c7.75,16.62,19.32,22.01,36.16,12.52c0.76-0.43,2.2,0.35,3.32,0.56 L370.4,2712.96z"></path> <path class="st0" d="M169.36,3423.2c-4.65,6.83-12.87,13.62-12.94,20.49c-0.06,6.77,8.13,13.62,13.22,21.2 c-7.3-0.24-13.23-3.23-19.26-5.31c-4.54-1.56-7.2-0.99-9.77,3.18c-3.21,5.21-7.12,9.98-11.35,15.79 c-2.37-6.84-1.33-13.14-1.11-19.18c0.19-5.24-1.46-7.74-6.53-9.02c-6.22-1.58-12.24-3.92-18.45-5.97c0.54-0.59,0.87-1.29,1.31-1.37 c18.83-3.27,29.61-12.34,22.81-32.49c2.65-1.44,3.07-0.2,3.38,0.43c7.6,15.29,18.1,21.98,34.51,11.96 c1.19-0.72,2.96-0.88,4.24,0.46L169.36,3423.2z"></path> <path class="st0" d="M169.08,3148.66c-6.79,1.53-12.3-2.61-18.28-4.4c-4.82-1.44-7.95-1.21-10.79,3.39 c-3.18,5.16-7.1,9.87-12.33,17c-0.01-8.6-0.47-14.87,0.12-21.04c0.52-5.47-1.85-7.65-6.65-8.95c-6.16-1.67-12.19-3.84-18.4-5.83 c0.49-0.93,0.55-1.23,0.7-1.28c7.78-2.8,17.84-3.53,22.72-8.93c4.96-5.5,0.56-15.81,2.06-25.96c4.53,6.12,8.57,10.84,11.75,16.09 c2.76,4.55,5.69,5.38,10.49,3.43c5.61-2.28,11.51-3.85,19.75-6.53c-4.7,6.76-7.63,11.94-11.51,16.28 c-4.15,4.64-3.61,8.18,0.12,12.62c3.73,4.45,6.75,9.48,10.09,14.25L169.08,3148.66z"></path> <path class="st0" d="M168.63,2675.35c-6.79,1.53-12.3-2.61-18.28-4.4c-4.82-1.44-7.95-1.21-10.79,3.39 c-3.18,5.16-7.1,9.87-12.33,17c-0.01-8.6-0.47-14.87,0.12-21.04c0.52-5.47-1.85-7.65-6.65-8.95c-6.16-1.67-12.19-3.84-18.4-5.83 c0.49-0.93,0.56-1.25,0.69-1.28c17.75-3.82,31.72-10.46,22.07-34.75c1.19,0.34,2.38,0.68,3.56,1.02 c3.67,4.95,7.71,9.68,10.89,14.93c2.76,4.55,5.69,5.38,10.49,3.43c5.61-2.28,11.51-3.85,19.75-6.53 c-4.7,6.76-7.63,11.94-11.51,16.28c-4.15,4.64-3.61,8.18,0.12,12.62c3.73,4.45,6.75,9.48,10.09,14.25 C168.47,2675.49,168.63,2675.35,168.63,2675.35z"></path> <path class="st0" d="M370.43,2911.68c-6.46,1.98-11.81-1.98-17.29-3.88c-6.07-2.11-9.63-1.19-12.87,4.25 c-2.76,4.64-6.33,8.8-11.41,12.91c-0.01-5.91-0.44-11.87,0.11-17.73c0.54-5.76-1.95-8.2-7.12-9.56c-5.88-1.54-11.6-3.68-17.64-5.64 c0.51-0.92,0.62-1.48,0.91-1.6c7.63-3.15,18.66-2.69,22.47-8.93c3.61-5.9,0.76-15.74,0.75-25.9c8,7.5,10.48,18.68,17.88,20.32 c6.94,1.53,15.43-3.94,23.57-6.43c-0.2,1.38-0.13,2.03-0.39,2.49c-3.94,7.02-13.36,12.58-12.04,20.35 c1.2,7.06,8.55,13.08,13.19,19.56C370.56,2911.9,370.43,2911.68,370.43,2911.68z"></path> <path class="st0" d="M370.89,3384.99c-6.46,1.98-11.81-1.98-17.29-3.88c-6.07-2.11-9.63-1.19-12.87,4.25 c-2.76,4.64-6.33,8.8-11.41,12.91c-0.01-5.91-0.44-11.87,0.11-17.73c0.54-5.76-1.95-8.2-7.12-9.56c-5.88-1.54-11.6-3.68-17.64-5.64 c0.51-0.92,0.62-1.47,0.91-1.6c7.63-3.15,18.66-2.69,22.47-8.93c3.61-5.9,0.76-15.74,0.75-25.9c8,7.5,10.48,18.68,17.88,20.32 c6.94,1.53,15.42-3.94,23.57-6.43c-0.2,1.38-0.13,2.03-0.39,2.49c-3.94,7.02-13.36,12.58-12.04,20.35 c1.2,7.06,8.55,13.08,13.19,19.56L370.89,3384.99z"></path> <path class="st0" d="M168.97,2950.07c-0.1-0.2-0.2-0.41-0.3-0.61c0.06,0.13,0.13,0.27,0.22,0.42 C168.91,2949.9,168.97,2950.07,168.97,2950.07z"></path> <path class="st0" d="M168.47,2675.49c0.06,0.24,0.12,0.48,0.18,0.72c-0.02-0.28-0.03-0.56-0.03-0.86 C168.63,2675.35,168.47,2675.49,168.47,2675.49z"></path> <path class="st0" d="M235.3,3385.86c0.38,0.03,0.76,0.06,1.14,0.09c-0.06,0.24-0.11,0.47-0.17,0.71c-0.28-0.34-0.55-0.67-0.83-1.01 C235.45,3385.65,235.3,3385.86,235.3,3385.86z"></path> <path class="st0" d="M436.53,2832.73c0.35,0.39,0.7,0.78,1.05,1.17c-0.3,0.03-0.67,0.18-0.88,0.06c-0.78-0.43-0.73-0.93,0.06-1.37 C436.76,2832.59,436.53,2832.73,436.53,2832.73z"></path> <path class="st0" d="M436.71,2792.15c-0.04-0.45-0.07-0.91-0.11-1.36c0.29,0.02,0.58,0.03,0.87,0.05c-0.33,0.4-0.66,0.79-0.98,1.19 C436.49,2792.02,436.71,2792.15,436.71,2792.15z"></path> <path class="st0" d="M370.27,2713.16l-0.21-0.41c0,0,0.33,0.22,0.34,0.21C370.4,2712.96,370.27,2713.16,370.27,2713.16z"></path> <path class="st0" d="M503.58,3385.65c0.4-0.06,0.8-0.12,1.21-0.18c0.01,0.26,0.01,0.51,0.02,0.77c-0.37-0.27-0.73-0.54-1.1-0.82 C503.71,3385.42,503.58,3385.65,503.58,3385.65z"></path> <path class="st0" d="M503.5,3185.79c0.18-0.23,0.34-0.49,0.57-0.66c0.06-0.05,0.46,0.19,0.45,0.22c-0.22,0.82-0.62,0.9-1.14,0.23 C503.39,3185.58,503.5,3185.79,503.5,3185.79z"></path> <path class="st0" d="M503.13,2912.34c0.4-0.06,0.8-0.12,1.21-0.18c0.01,0.26,0.01,0.51,0.02,0.77c-0.37-0.27-0.73-0.54-1.1-0.82 C503.26,2912.11,503.13,2912.34,503.13,2912.34z"></path> <path class="st0" d="M503.05,2712.48c0.18-0.23,0.34-0.49,0.57-0.66c0.06-0.05,0.46,0.19,0.45,0.22c-0.22,0.82-0.62,0.9-1.14,0.23 C502.93,2712.27,503.05,2712.48,503.05,2712.48z"></path> <path class="st0" d="M572.37,3148.57l-0.2,0.25c0,0,0.05-0.49,0.06-0.48C572.24,3148.35,572.37,3148.57,572.37,3148.57z"></path> <path class="st0" d="M572.1,2949.44l-0.16-0.44c0,0,0.28,0.24,0.28,0.23C572.23,2949.22,572.1,2949.44,572.1,2949.44z"></path> <path class="st0" d="M371.02,3385.21l-0.2,0.18c0,0,0.06-0.41,0.06-0.4C370.89,3384.99,371.02,3385.21,371.02,3385.21z"></path> <path class="st0" d="M370.72,3186.47l-0.21-0.41c0,0,0.33,0.22,0.34,0.21C370.86,3186.27,370.72,3186.47,370.72,3186.47z"></path> <path class="st0" d="M370.56,2911.9l-0.2,0.18c0,0,0.06-0.41,0.06-0.4S370.56,2911.9,370.56,2911.9z"></path> <path class="st0" d="M572.55,3422.75l-0.16-0.44c0,0,0.28,0.24,0.28,0.23C572.68,3422.53,572.55,3422.75,572.55,3422.75z"></path> <path class="st0" d="M638.93,3385.14c0.17,0.24,0.33,0.48,0.5,0.71c-0.11-0.28-0.22-0.56-0.33-0.85 C639.11,3385,638.93,3385.14,638.93,3385.14z"></path> <path class="st0" d="M639.01,3186.07c-0.08-0.23-0.16-0.46-0.25-0.69c0.02,0.17,0.04,0.34,0.07,0.53 C638.85,3185.93,639.01,3186.07,639.01,3186.07z"></path> <path class="st0" d="M169.42,3423.38c-0.1-0.2-0.2-0.41-0.3-0.61c0.06,0.13,0.13,0.27,0.22,0.42 C169.36,3423.2,169.42,3423.38,169.42,3423.38z"></path> <path class="st0" d="M234.8,2712.78c0.1-0.24,0.15-0.51,0.31-0.71c0.07-0.08,0.33-0.01,0.51,0c-0.32,0.18-0.64,0.36-0.96,0.53 C234.66,2712.6,234.8,2712.78,234.8,2712.78z"></path> <path class="st0" d="M638.47,2911.83c0.17,0.24,0.33,0.48,0.5,0.71c-0.11-0.28-0.22-0.56-0.33-0.85 C638.65,2911.69,638.47,2911.83,638.47,2911.83z"></path> <path class="st0" d="M638.56,2712.77c-0.08-0.23-0.16-0.46-0.25-0.69c0.02,0.17,0.04,0.34,0.07,0.53 C638.4,2712.62,638.56,2712.77,638.56,2712.77z"></path> <path class="st0" d="M234.85,2912.55c0.38,0.03,0.76,0.06,1.14,0.09c-0.06,0.24-0.11,0.47-0.17,0.71 c-0.28-0.34-0.55-0.67-0.83-1.01C235,2912.34,234.85,2912.55,234.85,2912.55z"></path> <path class="st0" d="M436.98,3306.04c0.35,0.39,0.7,0.78,1.05,1.17c-0.3,0.03-0.67,0.18-0.88,0.06c-0.78-0.43-0.73-0.93,0.06-1.37 C437.21,3305.9,436.98,3306.04,436.98,3306.04z"></path> <path class="st0" d="M437.17,3265.46c-0.04-0.45-0.07-0.91-0.11-1.36c0.29,0.02,0.58,0.03,0.87,0.05c-0.33,0.4-0.66,0.79-0.98,1.19 C436.94,3265.33,437.17,3265.46,437.17,3265.46z"></path> <path class="st0" d="M168.92,3148.8c0.06,0.24,0.12,0.48,0.18,0.72c-0.02-0.28-0.03-0.56-0.03-0.86 C169.08,3148.66,168.92,3148.8,168.92,3148.8z"></path> <path class="st0" d="M234.23,3028.18c0.68-0.86,1.42-1.06,2.26-0.22c-0.46,0.32-0.91,0.64-1.37,0.96 C234.82,3028.67,234.52,3028.42,234.23,3028.18z"></path> <path class="st0" d="M705.42,3422.29c0.11-0.23,0.18-0.49,0.34-0.68c0.07-0.08,0.32-0.01,0.48,0c-0.32,0.17-0.64,0.34-0.96,0.51 C705.28,3422.11,705.42,3422.29,705.42,3422.29z"></path> <path class="st0" d="M705.46,3305.61c0.33,0.46,0.66,0.92,0.99,1.37c-0.66-0.13-1.33-0.26-2-0.39 C704.77,3306.26,705.11,3305.93,705.46,3305.61z"></path> <path class="st0" d="M704.42,3264.3c0.73-0.74,1.48-1.07,2.3-0.12c-0.45,0.34-0.9,0.68-1.35,1.01 C705.05,3264.9,704.73,3264.6,704.42,3264.3z"></path> <path class="st0" d="M705.03,3148.77c0.36,0.13,0.72,0.26,1.07,0.4c-0.18,0.05-0.47,0.19-0.52,0.13c-0.18-0.21-0.28-0.49-0.41-0.74 C705.17,3148.56,705.03,3148.77,705.03,3148.77z"></path> <path class="st0" d="M704.97,2948.98c0.11-0.23,0.18-0.49,0.34-0.68c0.07-0.08,0.32-0.01,0.48,0c-0.32,0.17-0.64,0.34-0.96,0.51 C704.83,2948.8,704.97,2948.98,704.97,2948.98z"></path> <path class="st0" d="M705,2832.3c0.33,0.46,0.66,0.91,0.99,1.37c-0.66-0.13-1.33-0.26-2-0.39 C704.32,2832.95,704.66,2832.62,705,2832.3z"></path> <path class="st0" d="M703.97,2790.99c0.73-0.74,1.48-1.07,2.3-0.12c-0.45,0.34-0.9,0.68-1.35,1.01 C704.59,2791.59,704.28,2791.29,703.97,2790.99z"></path> <path class="st0" d="M704.58,2675.46c0.36,0.13,0.72,0.26,1.07,0.4c-0.18,0.05-0.47,0.19-0.52,0.13c-0.18-0.21-0.28-0.49-0.41-0.74 C704.72,2675.25,704.58,2675.46,704.58,2675.46z"></path> <path class="st0" d="M235.2,3069.47c0.45,0.34,0.91,0.67,1.36,1.01c-0.82,0.9-1.58,0.63-2.34-0.09 C234.54,3070.08,234.87,3069.77,235.2,3069.47z"></path> <path class="st0" d="M235.25,3186.09c0.1-0.24,0.15-0.51,0.31-0.71c0.07-0.08,0.33-0.01,0.51,0c-0.32,0.18-0.64,0.36-0.96,0.53 C235.11,3185.91,235.25,3186.09,235.25,3186.09z"></path> <path class="st0" d="M571.92,2675.26l-0.2,0.25c0,0,0.05-0.49,0.06-0.48C571.79,2675.04,571.92,2675.26,571.92,2675.26z"></path> </g> <g> <path class="st3" d="M2544.46,803.03c324.88,0,649.75,0,974.63,0c12.74,0,12.74,0,15.95,12.43 c13.93,53.88,23.18,108.53,28.08,163.97c1.23,13.96,1.23,27.92,1.96,41.87c0.17,3.22-0.84,6.7,1.6,9.57c0,13.32,0,26.64,0,39.96 c-4.16-1.78-8.54-0.91-12.81-0.91c-332.26-0.05-664.51-0.04-996.77-0.07c-4.31,0-8.62-0.36-12.93-0.56 c-0.06-1.33-0.16-2.66-0.16-3.99c-0.01-85.12-0.01-170.23,0.01-255.35C2544.01,807.65,2544.3,805.34,2544.46,803.03z"></path> <path class="st3" d="M2501.71,2093.83c-9.48-3.43-19.5-2.93-29.28-3.62c-161.67-11.4-312.09-58.64-451.43-141.3 c-36.66-21.75-71.78-45.79-105.31-72.12c-1.99-1.56-4.69-2.51-5.65-5.93c422.71,0,845.19,0,1267.84,0 c0.18,3.07-2.46,3.83-4.08,5.09c-118.47,92.2-250.6,155.83-396.85,190.16c-61.73,14.49-124.34,22.17-187.49,26.2 c-3.97,0.25-8.01,0.01-11.82,1.51C2552.32,2093.83,2527.02,2093.83,2501.71,2093.83z"></path> <path class="st4" d="M2544.46,803.03c-0.16,2.31-0.45,4.63-0.45,6.94c-0.02,85.12-0.02,170.23-0.01,255.35 c0,1.33,0.1,2.66,0.16,3.99c-3.16,1.57-6.55,0.89-9.83,0.89c-333.62,0.03-667.24,0.03-1000.86,0.03 c-12.65,0-12.85-0.03-12.43-12.45c1.24-36.26,2.71-72.5,7.28-108.55c0.6-4.73,2.23-7.87,6.09-10.6 c13.86-9.8,27.67-19.69,41.17-29.97c4.29-3.27,7.11-2.78,11.17,0.21c23.03,17,46.25,33.74,69.42,50.55 c2.95,2.14,5.95,4.2,9.02,6.37c2.3-2.5,0.31-4.47-0.31-6.39c-9.2-28.48-18.47-56.93-27.71-85.4c-2.59-7.98-2.58-8.03,4.06-12.87 c22.87-16.65,45.77-33.27,68.64-49.93c2.91-2.12,6.17-3.83,9.19-7.81c-3.11-0.17-5.55-0.41-7.99-0.41 c-29.63-0.03-59.27,0-88.9-0.03c-7.87-0.01-7.97-0.06-10.39-7.45c-8.3-25.28-16.52-50.57-24.76-75.87 c-1.14-3.49-1.75-6.82-0.28-10.59c9.27-23.88,19.04-47.55,29.94-70.73c0.58-1.24,1.28-2.31,3.3-3.14 c14.89,10.79,30.12,21.83,45.84,33.22c1-4.61-1.02-7.54-1.99-10.58c-6.54-20.6-13.15-41.18-20.1-61.65 c-1.76-5.17-1.92-9.64,1.27-14.11c0.38-0.54,0.69-1.14,1.01-1.72c18.42-34.1,18.42-34.1,49.5-56.67 c7.71-5.6,15.39-11.23,25.06-18.29c-10.52,0-18.63,0-26.95,0c9.35-33.15,141.95-182.35,195.51-219.83 c-9.25,28.75-18.02,55.98-26.97,83.78c4.54-0.36,6.7-3.07,9.23-4.9c23.2-16.76,46.32-33.65,69.51-50.43 c8.65-6.25,6.46-5.51,14.31,0.14c22.96,16.53,45.8,33.23,68.7,49.84c2.86,2.08,5.82,4.01,10.37,7.14 c-2.77-8.77-4.91-15.65-7.13-22.5c-7.69-23.73-15.43-47.43-23.1-71.16c-2.42-7.47-2.41-7.58,3.87-12.16 c24.21-17.64,48.47-35.21,72.68-52.86c1.5-1.1,3.61-1.7,4.36-5.3c-28.83,0-57.37,0-87.65,0c4.28-4.96,8.21-6.76,11.77-8.94 c100.2-61.35,207.63-104.57,322.68-128.79c66.32-13.96,133.29-21.58,201.08-21.94c2-0.01,4.01,0.12,5.99-0.04 c3.88-0.31,5.42,1.43,5.18,5.24c-0.17,2.65-0.02,5.33-0.02,7.99c0,65.59-0.01,131.18,0.02,196.77c0,3.98,0.31,7.97,0.47,11.95 c-0.17,2.65-0.48,5.29-0.48,7.94c-0.03,83.57-0.03,167.13,0,250.7c0,2.64,0.34,5.29,0.53,7.93c-0.18,2.64-0.52,5.29-0.52,7.93 c-0.03,84.07-0.03,168.14,0,252.2C2544.02,798.4,2544.3,800.71,2544.46,803.03z M2315.03,701.64c-1.75,4.95-2.68,7.42-3.5,9.93 c-9.09,27.8-18.15,55.61-27.26,83.4c-2.61,7.95-2.67,7.99-10.94,8c-28.62,0.03-57.24,0.01-85.85,0.01c-3.18,0-6.36,0-11.93,0 c4.43,3.51,6.85,5.57,9.41,7.43c23.13,16.83,46.31,33.61,69.43,50.45c6.82,4.97,6.83,5.06,4.27,12.98 c-9.08,28.15-18.2,56.29-27.3,84.43c-0.77,2.38-2.39,4.65-0.98,7.84c1.8-1.24,3.44-2.32,5.02-3.47 c23.96-17.4,47.86-34.86,71.88-52.17c8.43-6.07,5.83-6.91,15.01-0.25c22.9,16.59,45.73,33.27,68.67,49.8 c2.55,1.83,4.62,4.78,8.42,4.7c1.15-3.98-1.17-7.21-2.23-10.55c-8.47-26.6-17.18-53.13-25.78-79.68 c-2.78-8.57-2.77-8.64,4.31-13.79c22.87-16.63,45.77-33.21,68.63-49.85c2.79-2.03,5.39-4.32,8.54-6.86 c-4.28-1.64-7.59-0.97-10.82-0.98c-28.29-0.07-56.57-0.03-84.86-0.05c-8.98-0.01-9.03-0.03-11.74-8.28 c-4.66-14.21-9.24-28.45-13.88-42.66C2326.32,735.95,2321.02,719.88,2315.03,701.64z M1863.2,966.17c2.9-2,5.64-3.8,8.3-5.73 c23.15-16.81,46.28-33.65,69.43-50.47c7.01-5.09,7.05-5.1,14.26,0.13c23.16,16.8,46.29,33.64,69.47,50.41 c2.64,1.91,4.96,4.38,8.47,5.22c0.46-3.17-1.05-5.84-1.94-8.6c-8.69-26.88-17.45-53.74-26.19-80.6 c-3.45-10.59-3.46-10.58,5.95-17.42c22.88-16.62,45.75-33.25,68.61-49.9c2.01-1.46,4.45-2.57,6.21-6.24c-4.22,0-7.42,0-10.62,0 c-27.95,0-55.91,0.06-83.86-0.03c-11.62-0.04-9.57,1.52-13.37-10.08c-9.1-27.8-18.15-55.61-27.28-83.39 c-0.65-1.99-0.36-4.78-3.77-5.18c-9.73,30.01-19.45,60.04-29.21,90.06c-2.79,8.57-2.84,8.61-11.61,8.62 c-29.29,0.03-58.57-0.03-87.86,0.08c-2.35,0.01-5.26-1.28-7.32,1.91c2.44,1.86,4.77,3.72,7.17,5.47 c22.87,16.64,45.75,33.25,68.62,49.89c7.73,5.62,7.73,5.65,4.91,14.29c-8.86,27.17-17.79,54.32-26.52,81.54 C1864.08,959.16,1861.94,962.1,1863.2,966.17z M2033.91,667.77c-1.14-3.55-2.12-6.63-3.11-9.71 c-8.91-27.52-17.85-55.04-26.73-82.57c-2.43-7.54-2.41-7.62,3.81-12.15c23.68-17.24,47.4-34.42,71.04-51.7 c2.2-1.61,5.14-2.71,6.47-6.63c-4.1,0-7.37,0-10.64,0c-27.97,0-55.93,0.03-83.9-0.01c-11.46-0.02-9.38,0.74-12.79-9.63 c-8.72-26.53-17.25-53.13-26-79.66c-1.09-3.3-1.15-7.26-4.9-9.87c-1.06,3.09-2.03,5.85-2.94,8.63 c-8.95,27.51-17.85,55.03-26.83,82.53c-2.59,7.94-2.68,7.99-11.05,7.99c-29.3,0.03-58.6-0.01-87.89,0.06 c-2.43,0.01-5.14-0.75-7.89,1.46c1.91,1.58,3.33,2.89,4.88,4.01c23.95,17.43,47.93,34.83,71.88,52.25 c7.09,5.16,7.09,5.2,4.33,13.65c-8.86,27.19-17.79,54.35-26.55,81.57c-0.97,3.03-2.97,5.96-2.05,10.25 c3.31-2.3,6.26-4.29,9.14-6.37c23.17-16.81,46.28-33.69,69.49-50.44c7.1-5.12,5.29-5.3,12.67,0.03 c23.47,16.96,46.84,34.05,70.3,51.03C2027.26,664.4,2029.55,666.91,2033.91,667.77z M2452.33,506.68 c-0.16-0.55-0.32-1.11-0.49-1.66c-3.18,0-6.36,0-9.54,0c-28.62,0-57.25,0.02-85.87-0.01c-8.23-0.01-8.28-0.06-10.91-8.07 c-9.11-27.8-18.18-55.61-27.25-83.42c-0.86-2.64-1.2-5.52-3.57-7.55c-1.88,2.37-2.37,5.02-3.19,7.54 c-9.06,27.81-18.13,55.62-27.24,83.42c-2.63,8.02-2.69,8.07-10.91,8.08c-28.62,0.03-57.25,0.01-85.87,0.01c-3.17,0-6.34,0-9.52,0 c2.34,3.79,5.07,6.02,7.91,8.09c22.87,16.64,45.77,33.23,68.64,49.88c6.67,4.86,6.68,4.93,4.08,13 c-8.98,27.84-18.01,55.66-26.98,83.5c-0.77,2.39-2.7,4.71-0.85,7.71c3.24-1.03,5.65-3.39,8.3-5.31 c23.17-16.79,46.41-33.48,69.39-50.54c4.75-3.53,7.94-3.7,12.83-0.06c23.75,17.68,47.83,34.93,71.81,52.3 c1.91,1.39,3.66,3.39,6.3,3.38c0.86-3.29-0.54-5.32-1.23-7.49c-8.88-27.52-17.79-55.03-26.67-82.56c-2.9-9-2.91-9.06,4.64-14.55 c22.87-16.64,45.76-33.24,68.63-49.88C2447.35,510.63,2449.82,508.62,2452.33,506.68z M2230.57,369.97 c4.64-3.3,8.44-5.94,12.18-8.66c22.09-16.03,44.28-31.92,66.15-48.24c4.59-3.42,7.44-3.42,12.03-0.02 c23.78,17.67,47.83,34.96,71.85,52.29c1.97,1.42,3.59,3.9,6.65,3.39c1.14-2.93-0.63-5.26-1.42-7.7 c-8.86-27.54-17.8-55.05-26.69-82.58c-2.75-8.51-2.74-8.56,4.39-13.75c23.41-17.04,46.86-34.03,70.24-51.11 c2.15-1.57,5.13-2.61,6.11-6.48c-4.01,0-7.32,0-10.62,0c-28.3,0-56.6,0.02-84.9-0.01c-8.33-0.01-8.39-0.06-11-8.01 c-9.11-27.81-18.18-55.63-27.24-83.45c-0.92-2.82-1.37-5.84-3.78-8.54c-1.08,3.04-2.14,5.82-3.06,8.64 c-9.1,27.81-18.16,55.63-27.27,83.44c-2.58,7.88-2.64,7.92-11.05,7.93c-29.3,0.03-58.6,0-87.9,0.04c-2.44,0-5.07-0.5-7.55,0.86 c1.66,3.06,4.17,4.13,6.25,5.64c22.87,16.66,45.83,33.19,68.63,49.93c9.28,6.82,9.39,4.25,5.28,16.91 c-8.4,25.94-16.95,51.83-25.25,77.8C2231.55,361.64,2229.29,364.87,2230.57,369.97z"></path> <path class="st3" d="M1554.96,1336.9c659.49,0,1317.38,0,1975.2,0c1.49,2.91,0.16,5.35-0.53,7.81 c-24.7,88.61-60.79,172.29-107.91,251.29c-3.62,6.06-7.53,7.83-14.23,7.83c-575.35-0.14-1150.7-0.15-1726.05,0.09 c-7.91,0-11.73-2.79-15.54-9.17c-46.61-78.13-82.16-160.98-106.86-248.51C1558.24,1343.38,1557.93,1340.38,1554.96,1336.9z"></path> <path class="st3" d="M2544.54,535.95c-0.18-2.64-0.53-5.29-0.53-7.93c-0.03-83.57-0.03-167.13,0-250.7c0-2.65,0.31-5.29,0.48-7.94 c208.12,0,416.23,0.05,624.35-0.13c8.42-0.01,14.95,2.02,21.59,7.48c86.92,71.41,160.58,154.47,220.46,249.72 c1.24,1.97,2.47,3.95,3.61,5.98c0.29,0.52,0.21,1.24,0.3,1.87c-0.11,0.32-0.14,0.7-0.34,0.93c-0.19,0.21-0.56,0.35-0.86,0.37 c-2.65,0.13-5.3,0.32-7.96,0.32C3118.61,535.93,2831.57,535.94,2544.54,535.95z"></path> <path class="st5" d="M2315.03,701.64c5.99,18.25,11.29,34.31,16.55,50.39c4.65,14.22,9.22,28.45,13.88,42.66 c2.7,8.25,2.75,8.27,11.74,8.28c28.29,0.02,56.57-0.02,84.86,0.05c3.23,0.01,6.54-0.67,10.82,0.98c-3.15,2.54-5.75,4.83-8.54,6.86 c-22.86,16.64-45.77,33.22-68.63,49.85c-7.08,5.15-7.09,5.22-4.31,13.79c8.6,26.56,17.31,53.08,25.78,79.68 c1.06,3.34,3.38,6.57,2.23,10.55c-3.8,0.08-5.88-2.87-8.42-4.7c-22.94-16.53-45.78-33.21-68.67-49.8 c-9.18-6.65-6.59-5.82-15.01,0.25c-24.02,17.31-47.92,34.78-71.88,52.17c-1.59,1.15-3.22,2.23-5.02,3.47 c-1.41-3.18,0.21-5.45,0.98-7.84c9.1-28.14,18.23-56.28,27.3-84.43c2.55-7.92,2.55-8.01-4.27-12.98 c-23.12-16.84-46.3-33.62-69.43-50.45c-2.56-1.87-4.99-3.93-9.41-7.43c5.56,0,8.75,0,11.93,0c28.62,0,57.24,0.02,85.85-0.01 c8.27-0.01,8.33-0.05,10.94-8c9.11-27.79,18.16-55.6,27.26-83.4C2312.35,709.06,2313.28,706.59,2315.03,701.64z"></path> <path class="st5" d="M1863.2,966.17c-1.26-4.06,0.88-7.01,1.85-10.03c8.73-27.22,17.66-54.37,26.52-81.54 c2.82-8.64,2.82-8.67-4.91-14.29c-22.87-16.64-45.75-33.25-68.62-49.89c-2.4-1.75-4.73-3.6-7.17-5.47c2.06-3.19,4.97-1.9,7.32-1.91 c29.28-0.1,58.57-0.05,87.86-0.08c8.76-0.01,8.82-0.04,11.61-8.62c9.76-30.02,19.48-60.05,29.21-90.06 c3.42,0.4,3.12,3.19,3.77,5.18c9.12,27.79,18.18,55.6,27.28,83.39c3.8,11.6,1.75,10.04,13.37,10.08 c27.95,0.09,55.91,0.03,83.86,0.03c3.2,0,6.4,0,10.62,0c-1.76,3.68-4.2,4.78-6.21,6.24c-22.86,16.65-45.73,33.27-68.61,49.9 c-9.41,6.84-9.4,6.83-5.95,17.42c8.75,26.86,17.5,53.72,26.19,80.6c0.89,2.76,2.4,5.43,1.94,8.6c-3.51-0.84-5.84-3.31-8.47-5.22 c-23.18-16.77-46.31-33.61-69.47-50.41c-7.21-5.23-7.25-5.22-14.26-0.13c-23.15,16.82-46.28,33.66-69.43,50.47 C1868.84,962.36,1866.1,964.17,1863.2,966.17z"></path> <path class="st5" d="M2033.91,667.77c-4.36-0.86-6.65-3.37-9.26-5.26c-23.46-16.98-46.83-34.07-70.3-51.03 c-7.38-5.33-5.57-5.16-12.67-0.03c-23.21,16.75-46.33,33.63-69.49,50.44c-2.88,2.09-5.83,4.07-9.14,6.37 c-0.92-4.29,1.07-7.22,2.05-10.25c8.76-27.22,17.68-54.39,26.55-81.57c2.76-8.45,2.76-8.5-4.33-13.65 c-23.95-17.43-47.93-34.82-71.88-52.25c-1.55-1.12-2.96-2.43-4.88-4.01c2.75-2.2,5.46-1.45,7.89-1.46 c29.3-0.07,58.6-0.02,87.89-0.06c8.38-0.01,8.46-0.05,11.05-7.99c8.98-27.5,17.88-55.02,26.83-82.53c0.9-2.78,1.88-5.54,2.94-8.63 c3.75,2.61,3.81,6.57,4.9,9.87c8.75,26.52,17.28,53.12,26,79.66c3.41,10.37,1.34,9.62,12.79,9.63c27.97,0.04,55.93,0.01,83.9,0.01 c3.27,0,6.53,0,10.64,0c-1.33,3.92-4.28,5.02-6.47,6.63c-23.65,17.28-47.37,34.46-71.04,51.7c-6.22,4.53-6.24,4.61-3.81,12.15 c8.89,27.53,17.82,55.04,26.73,82.57C2031.79,661.14,2032.77,664.22,2033.91,667.77z"></path> <path class="st5" d="M2452.33,506.68c-2.51,1.95-4.98,3.96-7.55,5.82c-22.87,16.64-45.77,33.24-68.63,49.88 c-7.55,5.49-7.54,5.54-4.64,14.55c8.88,27.52,17.79,55.03,26.67,82.56c0.7,2.16,2.09,4.2,1.23,7.49c-2.63,0.01-4.38-1.99-6.3-3.38 c-23.98-17.37-48.05-34.62-71.81-52.3c-4.89-3.64-8.07-3.46-12.83,0.06c-22.98,17.05-46.22,33.74-69.39,50.54 c-2.65,1.92-5.06,4.28-8.3,5.31c-1.85-3,0.08-5.32,0.85-7.71c8.96-27.84,18-55.67,26.98-83.5c2.6-8.07,2.59-8.15-4.08-13 c-22.86-16.64-45.77-33.24-68.64-49.88c-2.84-2.07-5.57-4.3-7.91-8.09c3.17,0,6.34,0,9.52,0c28.62,0,57.25,0.02,85.87-0.01 c8.22-0.01,8.28-0.06,10.91-8.08c9.11-27.8,18.18-55.6,27.24-83.42c0.82-2.52,1.3-5.16,3.19-7.54c2.37,2.03,2.71,4.91,3.57,7.55 c9.07,27.81,18.14,55.62,27.25,83.42c2.63,8.01,2.68,8.06,10.91,8.07c28.62,0.03,57.25,0.01,85.87,0.01c3.18,0,6.36,0,9.54,0 C2452.01,505.57,2452.17,506.13,2452.33,506.68z"></path> <path class="st5" d="M2230.57,369.97c-1.29-5.09,0.97-8.33,2.05-11.68c8.3-25.97,16.85-51.86,25.25-77.8 c4.1-12.66,4-10.09-5.28-16.91c-22.8-16.74-45.76-33.28-68.63-49.93c-2.08-1.51-4.59-2.58-6.25-5.64c2.48-1.36,5.11-0.86,7.55-0.86 c29.3-0.04,58.6-0.01,87.9-0.04c8.41-0.01,8.47-0.05,11.05-7.93c9.11-27.81,18.17-55.63,27.27-83.44c0.92-2.82,1.98-5.59,3.06-8.64 c2.41,2.71,2.86,5.72,3.78,8.54c9.07,27.82,18.14,55.64,27.24,83.45c2.6,7.95,2.66,8,11,8.01c28.3,0.03,56.6,0.01,84.9,0.01 c3.31,0,6.61,0,10.62,0c-0.98,3.87-3.96,4.91-6.11,6.48c-23.38,17.09-46.83,34.07-70.24,51.11c-7.13,5.19-7.14,5.25-4.39,13.75 c8.89,27.53,17.83,55.04,26.69,82.58c0.79,2.44,2.56,4.77,1.42,7.7c-3.06,0.5-4.68-1.97-6.65-3.39 c-24.02-17.34-48.08-34.62-71.85-52.29c-4.59-3.41-7.44-3.41-12.03,0.02c-21.87,16.32-44.06,32.21-66.15,48.24 C2239.01,364.03,2235.22,366.67,2230.57,369.97z"></path> </g> <g> <path d="M1738.16,2896.5c0-26.47-0.41-50.73,0.47-74.95c0.12-3.37,6.05-8.02,10.21-9.53c43.17-15.75,86.07-32.45,129.93-46.02 c82.17-25.42,166.35-43.16,252.13-48.94c126-8.5,227.5,38.7,302.08,142.12c0.05-0.28,0.4-1,0.22-1.56 c-21.02-64.88-56.47-119.11-115.41-155.94c-33.27-20.79-70.39-29.89-108.75-32.83c-147.29-11.29-289.04,13.56-425.94,67.91 c-14.63,5.81-28.72,13.01-45.06,20.48c0-11.24,0-20.79,0-30.34c0-11.02,0.56-22.07-0.18-33.04c-0.54-8,2.91-11.44,9.86-14.13 c56.95-22.04,115.55-38.13,175.6-49.02c68.75-12.47,138.09-18.06,207.91-15.44c47.98,1.8,95.86,6.05,141.15,23.64 c43.91,17.06,77.36,48.16,105.92,84.49c16.48,20.97,30.82,43.62,46.09,65.47c-25.44-70.6-58.36-136.51-119.15-184.75 c-26.53-21.05-57.18-30.4-90.23-34.96c-56.97-7.85-114.14-11.61-171.53-9.25c-101.78,4.19-200.57,23.05-294.64,63.43 c-2.87,1.23-5.89,2.09-10.53,3.72c0-20.13-0.22-38.78,0.38-57.41c0.05-1.7,5.43-4.63,8.24-4.52c4.27,0.17,8.46,2.5,13.87,3.46 c-10.12-10.35-13.1-20.46,0.45-30.77c-0.68-0.49-1.36-0.97-2.04-1.45c-2.79,0.75-5.61,1.41-8.37,2.27 c-10.52,3.28-12.6,1.87-12.71-9.4c-0.15-15.23-0.06-30.46-0.07-45.69c-0.01-25.87,0-51.75,0-78.38c3.92,0.18,6.86,0.32,11.75,0.55 c-9.37-9.07-9.17-17.15,3.22-25.53c-6.58,0.36-10.1,0.56-14.31,0.79c0-28.17,0-55.87,0-83.58c13.19,0.11,15.01,1.89,16.5,16.76 c6.15-7.09,12.52-12.44,22.2-3.94c-5.95-8.9-7.94-16.28,1.03-23.8c-9.31,1.99-16.73,1.28-20.76-8.94 c-1.24,11.52-6.17,17.95-19.6,15.86c0-14.12-0.23-28.56,0.06-43c0.41-20.35-4.71-19.05,19.04-22.92 c53.59-8.73,107.5-10.69,161.74-7.74c57.1,3.11,113.34,11.1,168.63,25.72c110.83,29.32,207.37,83.67,287.73,165.66 c40.52,41.35,69.29,89.46,78.96,147.59c6.28,37.75,2.38,75.58,1.83,113.42c-0.26,18.33,1.16,36.86,3.79,55.02 c2.71,18.75,12.82,34.09,29.37,43.84c25.57,15.06,49.87,32.72,79.99,38.7c36.13,7.17,71.64,2.68,106.89-5.1 c21.15-4.67,42.29-9.96,62.79-16.88c33.23-11.21,66.77-9.8,100.91-7.12c19.5,1.53,32.61,9.04,40.32,27.02 c3.35,7.8,8.35,14.89,13.41,23.73c-3.36-0.22-4.7,0.03-5.73-0.43c-54.65-24.24-111.13-20.41-168.03-11.29 c-35.45,5.68-70.83,12.54-106.52,15.93c-54.32,5.16-98.93-17.73-137.83-53.63c-3-2.77-4.85-6.78-8.36-9.25 c-3.83,14.23-2.03,25.3,8.24,35.31c32.76,31.95,71.86,48.83,117.23,52.28c32.04,2.44,63.21-3.61,94.54-8.72 c46.74-7.62,93.75-13.17,141.2-10.59c17.34,0.94,34.58,4.62,51.76,7.62c24.94,4.35,38.65,20.35,44.24,45.07 c-1.77-0.51-3.55-0.7-4.99-1.5c-35.69-19.95-74.79-26.76-114.84-28.97c-62.49-3.44-124.05,3.67-185.3,16.2 c-55.83,11.42-105.28-2.68-146.83-42.4c-1.85-1.76-3.7-3.52-6.87-6.53c-1.22,10.89-2.8,19.82,3.97,28.4 c21.21,26.89,49.12,41.24,82.65,46.08c27.46,3.97,54.23-1.58,81.14-5c60.41-7.67,120.78-16.08,181.88-14.31 c37.05,1.07,73.56,5.54,108.15,20.51c9.87,4.27,14.38,11.17,16.48,22.74c-4.13-1.09-7.37-1.77-10.48-2.8 c-55.11-18.27-111.35-21.6-168.88-15.32c-63.37,6.92-126.51,17.28-190.54,16.32c-14.83-0.22-29.8-1.68-44.39-4.31 c-24.15-4.35-45.86-13.68-58.97-37.52c-5.36,15.5-0.99,26.96,8.84,37.34c20.16,21.29,45.46,31.12,73.97,34.91 c33.38,4.44,65.82-2.45,98.45-7.04c56.48-7.95,113.04-15.1,170.21-14.19c41.96,0.67,83.29,5.82,122.94,20.86 c8.81,3.34,14.92,7.8,17.31,17.51c2.74,11.18,6.79,22.04,8.49,34.64c-2.91-1.57-5.88-3.02-8.71-4.72 c-46.55-28.15-97.57-40.91-151.38-44.29c-66.22-4.16-131.12,5.52-195.74,18.42c-29.12,5.82-58.4,8.3-87.68,1.07 c-16.39-4.05-30.06-11.6-40.56-26.07c-24.73-34.09-50.38-67.52-82.28-95.58c-52.49-46.17-113.54-72.47-182.79-80.87 c-80.95-9.81-159.49,3.2-237.1,24.49c-78.35,21.49-153.07,52.54-226.17,87.68C1749.68,2891.5,1744.98,2893.45,1738.16,2896.5z M2181.9,2316.66c1.48,4.33,2.23,5.8,2.48,7.35c2.51,15.55,11.63,23.82,25.84,31.39c94.65,50.46,162.91,126.39,209.45,222.42 c5.71,11.77,10.59,23.94,15.85,35.93c0.88-4.49,0.88-8.69,0.38-12.83c-6.34-53.29-28.27-99.88-61.35-141.56 c-46.23-58.25-105.45-99.88-171.28-132.93C2197.03,2323.29,2190.55,2320.59,2181.9,2316.66z M2206.25,2392.02 c2.43,8.59,5.55,17.05,7.11,25.79c2.13,11.92,7.88,18.99,19.02,25.19c71.15,39.66,124.89,96.97,164.33,167.76 c11.74,21.07,21.31,43.36,32.55,66.49c-12.54-64.79-41.11-120.28-81.75-169.82C2308.41,2459.77,2261.84,2420.91,2206.25,2392.02z M2186.84,2502.61c12.83,6.02,12.96,15.11,9.09,26.37c8.37-10.52,16.8-9.76,26.21-0.67c-3.14-18.61-2.07-20.69,12.03-25.51 c1.74,7.14,3.46,14.21,4.81,19.74c4.69,1.43,9.08,1.76,12.26,3.9c17.4,11.69,36.02,22.16,51.43,36.13 c39.03,35.38,67.73,79.04,93.72,124.48c9.42,16.47,18.13,33.34,27.71,51.03c-5.24-81.36-127.18-242.41-191.67-254.67 c-5.43,4.91,7.39,14.39-4.75,17.58c-12.38,3.26-16.65-4.53-19.54-15.46C2206.16,2497.42,2201.15,2504.61,2186.84,2502.61z M1931.56,2474.86c-1.31,18.9-9.72,28-29.91,25.05c19.75,6.54,22.93,18.66,15,36.39c11.74-16.81,24.34-16.55,39.07-3.95 c-10.9-15.37-9.26-26.99,7.75-37.25C1943.76,2501.27,1935.66,2492.04,1931.56,2474.86z M1996.21,2442.93 c-2.17-6.34-7.12-13.37-5.75-18.82c1.46-5.8,8.9-10.09,13.74-15.04c-16.97,5.03-26.47-2.31-29.83-21.21 c-3.23,9.46-3.63,18.06-8.05,21.52c-4.72,3.7-13.24,2.54-23.85,4.03c19.16,6.04,26.19,16,16.83,34.12 C1971.29,2433.38,1982.91,2431.3,1996.21,2442.93z M1861.28,2462.84c4.85-4.98,9-12.68,14.76-14.16 c5.68-1.46,12.98,3.37,19.57,5.44c-11.83-12.73-11.05-24.45,3.21-36.84c-17.8,9.5-27.64,2.07-34.92-13.97 c4.48,20.51-6.71,26.66-23.87,29.03C1858.79,2435.42,1865.79,2445.01,1861.28,2462.84z M1768.8,2486.56 c9.1-14.97,19.65-21.31,35.59-9.16c-3.22-7.76-9.27-14.24-8.62-19.97c0.69-6.12,7.7-11.53,12.26-17.67 c-7.7,1.49-15.55,5.47-21.16,3.4c-5.45-2.01-8.61-10.23-13.47-16.64c-1.04,7.74,0.22,16.1-3.37,20.32 c-3.87,4.54-12.29,5.21-22.01,8.78C1768.16,2458.72,1774.89,2468.31,1768.8,2486.56z M1835.11,2500.48 c-1.5,6.49-1.13,14.71-5.05,18.97c-3.76,4.08-11.98,4.03-18.25,5.8c16.51,4.31,20.53,14.86,15.76,31.53 c9.55-16.53,21.02-15.96,35.6-4.72c-4.09-9.03-9.43-15.26-8.61-20.52c0.89-5.67,7.55-10.44,13.54-17.91 C1851.2,2520.19,1839.85,2517.88,1835.11,2500.48z M2101.71,2403.38c-16.95,6.52-24.42-2.47-29.29-17.3 c0.14,17.09-7.59,24.87-25.01,24.21c15.67,5.53,20.54,15.1,14.65,31.03c10.08-14.78,21.38-12.75,34.34-3.06 C2089.62,2419.21,2089.62,2419.21,2101.71,2403.38z M2103.96,2494.48c15.45,6.48,21.04,16,13.05,31.96 c10.75-12.24,21.48-15.05,34.45-2.93c-9.4-14.35-6.47-24.9,7.94-33.74c-16.75,5.65-25.16-1.07-29.75-17.28 C2130.01,2491.18,2120.21,2496.02,2103.96,2494.48z M1941.96,2338.9c-6.74,0-14.07,2.11-18.5-0.57 c-4.71-2.85-6.68-10.23-11.42-18.32c0.82,18.01-7.73,24.47-23.83,23.94c16.84,5.36,18.4,16.26,13.34,30.97 c9.81-14.78,20.47-13.57,32.63-2.97C1928.96,2351.57,1928.96,2351.57,1941.96,2338.9z M2144.28,2409.97 c15.66,5.29,16.07,15.7,11.72,28.8c9.39-13.76,19.47-12.06,31.04-3.32c-8.58-12.12-6.37-21.27,6.6-28.89 c-17.06-1.31-17.06-1.31-28.04-18.72C2167.22,2405.11,2158.55,2409.89,2144.28,2409.97z M2101.6,2343 c13.24,6.63,16.06,15.61,9.46,28.94c11.04-12.14,20.6-9.25,30.76,0.45c-8.1-13.56-4.47-22.97,9.19-30.06 c-14.79,2.85-22.63-2.7-25.47-16.96C2123.26,2339.64,2116.72,2346.09,2101.6,2343z M2037.26,2361.97 c-9.5-13.11-3.53-21.33,7.19-29.53c-15.06,5.98-22.53-0.74-27.15-14.38c-0.01,15.28-7.66,20.88-21.95,20.69 c13.93,4.76,17.75,13.33,12.51,27.2C2016.77,2355.36,2025.59,2352.54,2037.26,2361.97z M1931.82,2269.04 c14.04,4.15,17.9,12.81,14.07,26.78c9.39-12.96,18.82-9.25,29.22-2.43c-8.53-11.73-5.93-20.81,5.1-29.32 c-15.1,4.56-21.08-3.43-25.33-15.52C1954.48,2264.18,1946.99,2270.15,1931.82,2269.04z M1842.4,2299.72 c9.29-14.64,18.96-8.99,29.53-3.04c-8.87-12.02-6.48-21.53,5.35-30.49c-16.12,7.69-21.57-2.32-26.78-13.93 c-0.04,14.4-5.83,21.83-21.33,20.83C1840.91,2278.46,1847.83,2284.97,1842.4,2299.72z M1811.76,2381.98 c7.18-12.56,16.12-14.32,28.39-6.89c-9.09-10.14-10.26-19.27,2.24-28.26c-16.82,1.32-16.82,1.32-26.85-8.88 c0,0-17.49,20.15-18.45,21.25C1811.32,2360.38,1814.28,2368.88,1811.76,2381.98z M2031.38,2470c0.09,15.09-7.41,21.04-21.8,20.68 c13.1,3.71,17.44,11.45,14.05,24.82c8.49-12.68,17.69-7.86,27.56-3.23c-10.26-12.46-3.72-20.3,6.26-28.12 C2043.1,2489.31,2035.09,2484.43,2031.38,2470z M2088.66,2278.37c-12.22,2.32-18.12-3.36-20.09-15.73 c-5.81,13.58-5.81,13.58-22.04,16.89c11.92,5.03,14.56,12.73,7.54,24.12c6.25-3.35,10.35-7.24,14.48-7.27 c3.93-0.03,7.89,3.95,11.83,6.17C2074.08,2291.38,2079.28,2284.82,2088.66,2278.37z M2173.87,2294.16 c-7.9,3.1-12.23-1.46-13.41-7.72c-4.35,3.59-8.91,7.36-12.09,9.99c1.4,5.15,2.81,10.35,4.17,15.36c1.79-0.85,4.61-3.23,7.47-3.26 c2.67-0.04,5.38,2.4,5.82,2.62C2168.69,2305.09,2171.28,2299.63,2173.87,2294.16z"></path> <path d="M2444.22,2954.52c-7.17,18.03-21.83,22.19-36.54,20.71c-32.11-3.23-64.51-6.58-95.81-14.01 c-46.66-11.07-88.46-1.79-128.42,22.07c-2.5,1.49-4.96,3.06-7.54,4.39c-0.75,0.38-1.86,0.06-2.78,0.06 c-3.86-23.08,12.09-48.54,36.46-57.9c27.88-10.7,56.12-7.61,84.16-1.07c26.14,6.1,51.9,13.94,78.18,19.33 c12.43,2.55,25.71,1.98,38.51,1.16c4.87-0.31,9.43-5.3,14.13-8.15c-3.58-4.16-6.37-9.74-10.87-12.24 c-24.35-13.53-51.06-20.52-78.29-24.93c-119.99-19.42-236.79-5.47-351.03,34.38c-82.27,28.7-160.44,66.1-235.5,110.19 c-2.72,1.6-5.6,2.94-9.84,5.15c-0.4-4.27-0.93-7.26-0.94-10.26c-0.07-23.98,0.24-47.97-0.2-71.94c-0.14-7.41,2.81-10.9,9.26-13.73 c106.48-46.73,215.33-86.06,330.65-104.61c71.48-11.5,143.07-13.9,214.29,2.67c85.48,19.88,152.91,66.72,204.19,137.39 c5.3,7.3,9.81,15.28,13.86,23.36c8.16,16.25,12.69,33.18,5.96,51.94c26.4-13.63,54.52-17.55,82.44-19.35 c52-3.37,104.16-5.9,156.25-5.93c55.84-0.03,110.21,10.13,161.07,34.69c22.61,10.92,43.12,24.88,61.21,42.49 c12.49,12.15,21.83,24.79,21.25,43.68c-0.47,15.22,2.02,30.53,3.2,45.79c-1.31,0.7-2.62,1.4-3.93,2.1 c-0.75-1.75-1.24-3.66-2.28-5.21c-41.42-62.14-100.49-99.82-170.44-121.95c-78.32-24.78-157.56-22.68-237.21-7.04 c-52.06,10.22-101.58,28.32-150.76,47.5c-63.03,24.59-126.01,49.34-188.71,74.76c-13.08,5.3-25.16,13.36-37.06,21.13 c-3.68,2.4-8.3,9.55-7.14,11.86c2.18,4.37,7.89,8.9,12.74,9.69c21.2,3.44,41.83-1.43,62.32-6.55 c51.83-12.93,99.91-35.71,148.82-56.37c74.16-31.33,149.91-57.66,229.88-69.89c72.46-11.08,144.11-10.62,212.92,18.74 c56.09,23.93,95.05,65.15,118.33,121.29c1.36,3.28,2.45,8.19,0.99,10.89c-9.99,18.44-20.68,36.5-31.23,54.63 c-0.55,0.95-1.93,1.41-4.06,2.88c0.43-6.53,0.7-11.84,1.14-17.13c6.07-72.36-32.17-116.62-89.76-141.45 c-40.83-17.61-84.17-23.11-128.07-24.28c-32.74-0.87-65.68,0.1-97.11,10.49c-31.96,10.57-63.44,22.65-94.94,34.55 c-75.73,28.6-151.17,58.01-227.12,86.02c-32.93,12.14-67.31,19.06-102.75,18.25c-8.06-0.18-16.22-1-24.1-2.65 c-37.81-7.92-55.14-30.41-57.06-72.29c-2.19-47.83,20.65-80.8,60.82-103.55c32.04-18.14,67.07-26.26,103.44-26.25 c33.62,0.02,67.24,3.93,100.87,4.27c20.54,0.21,41.65-0.75,61.55-5.33c34.07-7.84,46.19-36.93,30.84-68.53 c-5.67-11.68-13.53-21.7-25.64-30.55c0.5,4.77,0.82,7.55,1.08,10.34c3.14,33.86-16.19,54.49-50.02,52.06 c-22.25-1.59-44.33-5.56-66.58-7.16c-40.59-2.9-81.07-0.85-120.6,9.14c-32.28,8.16-57.92,26.81-76.32,54.9 c-1.14,1.74-2.58,3.29-4.26,5.42c-6.77-29.63,13.66-71.91,42.64-86.59c32.84-16.64,68.28-22.65,104.72-18.7 c29.57,3.2,58.81,9.29,88.3,13.27c11.14,1.5,22.67,1.59,33.9,0.71c16.76-1.31,25.24-13.21,30.48-27.65 C2453.97,2975.06,2453.39,2964.83,2444.22,2954.52z M2316.38,3113.66c-15.49,0.74-32.14,0.37-48.43,2.63 c-17.51,2.43-34.9,6.59-51.9,11.52c-6.7,1.94-13.46,6.97-17.99,12.42c-11.36,13.7-5.15,29.73,12.23,32.62 c7.56,1.26,15.47,1.57,23.12,0.98c45.19-3.5,85.63-21.6,125.39-41.6c3.44-1.73,6.82-3.92,9.54-6.6c1.82-1.8,2.4-4.84,3.53-7.33 c-2.3-0.83-4.57-2.26-6.9-2.39C2349.13,3115.01,2333.27,3114.4,2316.38,3113.66z"></path> <path d="M2986.92,3091.74c-7.72-6.45-14.19-12.17-20.99-17.48c-41.37-32.36-88.98-49.6-140.35-57.66 c-62.25-9.76-123.82-3.6-185.45,6.6c-33.48,5.54-67.4,8.43-101.1,12.7c-8.55,1.08-13.1-1.59-14.88-10.62 c-1.53-7.75-5.17-15.09-8.15-23.37c9.12,2.12,17.48,5.81,25.75,5.65c25.13-0.51,50.32-1.61,75.33-4.12 c47.62-4.77,95-12.88,142.7-15.59c67.41-3.83,131.63,9.69,192.11,41.76C2977.64,3043.24,2986.11,3063.3,2986.92,3091.74z"></path> <path d="M2572.96,2737.7c9.78-5.98,19.31-12.41,29.4-17.8c7.51-4.01,10.04-8.47,7.15-17.01c-3.67-10.84-5.86-22.18-8.69-33.31 c0.74-0.46,1.48-0.92,2.22-1.38c9.53,8,19.29,15.73,28.49,24.1c4.74,4.31,8.37,4.24,13.49,0.73c10.27-7.04,20.98-13.44,31.5-20.1 c0.69,0.55,1.38,1.1,2.07,1.64c-4.57,11.17-8.72,22.55-13.88,33.45c-3.18,6.71-2.58,10.78,3.72,15.29 c9.61,6.89,18.42,14.9,27.56,22.43c-0.31,0.92-0.61,1.84-0.92,2.76c-11.02-0.73-22.09-0.97-33.03-2.35 c-9.28-1.18-14.29,1.77-17.09,10.94c-3.16,10.33-7.81,20.21-11.81,30.28c-0.97-0.01-1.95-0.01-2.92-0.02 c-2.46-10.15-4.94-20.29-7.37-30.44c-3.4-14.16-3.4-13.98-17.75-14.58c-10.48-0.44-20.94-1.46-31.41-2.22 C2573.44,2739.29,2573.2,2738.49,2572.96,2737.7z"></path> <path d="M3084.02,3317.07c-8.38-7.91-17.15-15.46-25-23.86c-5.34-5.7-9.64-6.85-16.51-2.33c-9.64,6.34-20.07,11.48-30.16,17.13 c-0.75-0.56-1.5-1.12-2.25-1.68c4.41-9.42,8.01-19.34,13.44-28.14c6.03-9.77,4.14-15.99-4.72-22.57 c-8.17-6.07-15.17-13.71-22.69-20.66c0.34-0.82,0.67-1.64,1.01-2.46c10.33,1.33,20.76,2.17,30.97,4.12 c9.54,1.82,15.85,0.41,19.42-10.04c3.49-10.24,8.94-19.8,15.9-29.41c2.12,11.25,4.59,22.45,6.25,33.77 c1.22,8.35,4.68,12.21,13.73,12.44c11.22,0.29,22.39,2.41,34.3,6.04c-10.5,5.87-20.73,12.32-31.6,17.39 c-7.1,3.31-8.32,7.5-6.65,14.44c2.71,11.25,4.76,22.67,7.08,34.01C3085.7,3315.86,3084.86,3316.46,3084.02,3317.07z"></path> <path d="M2885.46,3305.07c2.98,8.3,6.85,16.41,8.72,24.96c2.29,10.52,8.03,13.41,17.96,12.14c8.58-1.1,17.29-1.18,25.95-1.71 c0.53,0.93,1.07,1.85,1.6,2.77c-6.38,4.87-12.86,9.61-19.13,14.63c-14.5,11.61-13.88,5.76-7.39,24.74 c2.57,7.51,5.25,14.99,7.88,22.48c-0.66,0.59-1.33,1.19-1.99,1.78c-6.69-4.69-13.4-9.35-20.07-14.07 c-12.61-8.94-12.57-8.91-24.45,0.46c-6.51,5.14-13.17,10.1-21.85,13.85c2.69-9.1,4.86-18.4,8.23-27.25 c3-7.89,2.08-12.97-5.82-17.31c-8.31-4.56-15.84-10.53-22.99-18.05c10.17-0.57,20.34-1.61,30.5-1.56 c7.13,0.03,10.42-2.63,12.01-9.54c2.19-9.53,5.44-18.82,8.23-28.21C2883.72,3305.14,2884.59,3305.1,2885.46,3305.07z"></path> <path d="M3127.97,3130.75c5.94-6.65,11.44-13.77,17.95-19.81c5.5-5.11,5.21-9.23,1.26-14.94c-5.05-7.3-9.32-15.14-13.92-22.74 c0.58-0.64,1.15-1.29,1.73-1.93c5.77,2.44,11.54,4.9,17.32,7.32c19.02,7.97,13.61,9.07,27.51-6.52c3.81-4.27,7.75-8.42,14.11-11.91 c-0.66,8.67-0.7,17.44-2.15,25.98c-1.3,7.68,1.6,11.06,8.48,13.46c7.84,2.73,15.29,6.57,22.91,9.93c0.06,0.9,0.13,1.81,0.19,2.71 c-7.81,1.79-15.55,4.13-23.47,5.21c-8.3,1.14-12.52,4.35-12.42,13.44c0.09,8.22-1.49,16.46-2.33,24.68 c-0.87,0.32-1.73,0.63-2.6,0.95c-3.92-6.67-8.64-13-11.56-20.08c-4.08-9.89-10.08-11.68-19.68-8.32 c-7.04,2.46-14.64,3.32-21.99,4.9C3128.86,3132.3,3128.41,3131.53,3127.97,3130.75z"></path> <path d="M3397.18,3420.58c-0.8,8.23-1.33,16.49-2.49,24.66c-0.89,6.33,0.56,10.33,7.18,12.56c8.03,2.7,15.72,6.39,23.56,9.65 c-0.1,0.89-0.19,1.78-0.29,2.67c-7.36,1.75-14.64,4.26-22.11,5.05c-9.05,0.97-12.04,5.85-12.3,14.05 c-0.23,7.24-0.93,14.47-1.42,21.71c-1.01,0.27-2.02,0.53-3.03,0.8c-4.19-7.01-8.72-13.85-12.48-21.09c-3-5.78-6.41-7.82-13.07-5.71 c-8.14,2.59-16.68,3.93-26.35,3.79c5.88-6.69,11.5-13.64,17.73-19.99c4.19-4.27,4.3-7.76,0.98-12.6c-4.9-7.14-9.1-14.75-13.6-22.16 c0.5-0.69,0.99-1.39,1.49-2.08c8.11,3.41,16.38,6.51,24.28,10.34c5.29,2.56,8.77,1.88,12.39-2.84 c5.27-6.87,11.19-13.24,16.84-19.82C3395.38,3419.91,3396.28,3420.25,3397.18,3420.58z"></path> <path d="M3003.82,2915.5c-2.34-7.21-5.07-14.32-6.91-21.66c-1.45-5.79-4.49-7.95-10.3-7.71c-7.91,0.32-15.84,0.08-23.76,0.08 c-0.27-0.82-0.55-1.64-0.82-2.46c4.83-3.52,9.34-7.61,14.54-10.43c9.25-5.02,12.34-11.21,7.29-21.21 c-2.64-5.24-3.71-11.27-5.48-16.95c0.69-0.43,1.38-0.86,2.07-1.3c6.41,4.73,13.09,9.14,19.14,14.3c4.29,3.66,7.53,3.56,11.82,0.17 c6.03-4.76,12.52-8.94,18.82-13.37c0.8,0.43,1.61,0.85,2.41,1.28c-1.73,5.47-2.97,11.17-5.31,16.37c-4,8.89-3.85,15.61,6.16,20.51 c5.31,2.6,9.67,7.13,13.9,13.19c-7.55,0-15.11,0.34-22.63-0.11c-6.22-0.37-9.53,1.9-11.22,7.94c-2.02,7.25-4.81,14.29-7.27,21.42 C3005.45,2915.54,3004.64,2915.52,3003.82,2915.5z"></path> <path d="M2807.3,3209.18c20.35,4.64,33.61-0.83,33.33-25.6c1.21,0.9,2.43,1.79,3.64,2.69c1.71,4.94,3.95,9.77,5.01,14.84 c1.46,6.91,4.9,9.88,12.1,9.36c5.28-0.38,10.64,0.36,15.97,0.61c0.25,0.82,0.49,1.64,0.74,2.46c-4.25,3.11-8.2,6.77-12.81,9.2 c-6.89,3.63-7.81,8.36-5.08,15.11c1.99,4.93,3.13,10.2,2.84,16.61c-4.57-3.36-9.43-6.39-13.62-10.16 c-5.01-4.51-9.31-4.58-14.49-0.3c-4.34,3.58-9.31,6.41-15.69,8.25c1.78-5.4,3.15-10.97,5.44-16.14c2.69-6.09,1.71-10.21-4.14-13.74 c-4.6-2.77-8.63-6.48-12.91-9.77C2807.53,3211.46,2807.42,3210.32,2807.3,3209.18z"></path> <path d="M2870.48,2763.31c-8.83-5.93-14.97-13.12-21.56-13.56c-6.09-0.41-12.67,6.42-21.44,11.43c2.49-7.11,3.72-12.28,6.06-16.87 c2.97-5.81,1.6-9.47-3.61-12.89c-3.91-2.56-7.28-5.95-12.75-10.53c9.92-0.71,18.96,1.13,24.42-2.47 c5.24-3.45,6.76-12.54,9.94-19.19c0.86,0.45,1.69,0.61,1.82,1c1.49,4.6,3.33,9.15,4.18,13.88c1.18,6.54,5.02,8.18,11.01,8.03 c4.64-0.12,9.31,0.69,14.65,3.37c-3.8,2.65-7.32,5.88-11.45,7.81c-6.65,3.1-8.08,7.29-5.42,13.94 C2868.07,2751.61,2868.74,2756.39,2870.48,2763.31z"></path> <path d="M3239.3,3412.79c3.28,7.71,4.34,15.76,8.91,19.33c4.25,3.32,12.23,1.86,21.27,2.78c-7.1,5.49-14.93,8.63-17.05,14.02 c-2.04,5.19,1.81,12.7,3.42,21c-6.93-4.41-12.38-10.57-17.97-10.7c-5.77-0.14-11.67,5.59-19.12,8.83 c8.05-14.42,7.15-26.15-10.48-33.2c0.83-0.79,1.65-1.58,2.48-2.37c6.46,0,14.51,2.35,18.95-0.64 C3234.46,3428.64,3235.78,3420.39,3239.3,3412.79z"></path> <path d="M3162.85,3336.85c5.63-2.93,13.37-4.53,16.27-9.16c2.8-4.47,0.61-12.07,0.61-20.33c6.16,5.75,10.19,12.4,15.47,13.61 c5,1.15,11.32-3.4,19.47-6.3c-3.69,7.52-9.2,13.58-8.58,18.92c0.65,5.63,7.17,10.57,11.13,17.27c-14.8-6.05-25.73-3.73-31.65,13.55 c-0.45-16.21-5.97-26.28-23.9-24.69C3162.06,3338.76,3162.46,3337.81,3162.85,3336.85z"></path> <path class="st6" d="M2181.9,2316.66c8.65,3.93,15.13,6.63,21.38,9.77c65.83,33.05,125.05,74.68,171.28,132.93 c33.07,41.67,55.01,88.27,61.35,141.56c0.49,4.14,0.49,8.35-0.38,12.83c-5.26-11.99-10.14-24.16-15.85-35.93 c-46.54-96.02-114.8-171.96-209.45-222.42c-14.21-7.58-23.34-15.84-25.84-31.39C2184.13,2322.46,2183.38,2320.99,2181.9,2316.66z"></path> <path class="st6" d="M2206.25,2392.02c55.59,28.9,102.15,67.75,141.26,115.42c40.64,49.54,69.22,105.03,81.75,169.82 c-11.24-23.13-20.81-45.42-32.55-66.49c-39.44-70.79-93.18-128.1-164.33-167.76c-11.14-6.21-16.89-13.27-19.02-25.19 C2211.8,2409.07,2208.68,2400.61,2206.25,2392.02z"></path> <path class="st6" d="M2186.84,2502.61c14.31,2,19.32-5.19,21.3-17.07c2.89,10.93,7.16,18.71,19.54,15.46 c12.14-3.19-0.69-12.67,4.75-17.58c64.49,12.26,186.43,173.3,191.67,254.67c-9.58-17.69-18.29-34.56-27.71-51.03 c-25.99-45.43-54.69-89.1-93.72-124.48c-15.41-13.97-34.02-24.44-51.43-36.13c-3.18-2.14-7.57-2.47-12.26-3.9 c-1.35-5.52-3.07-12.59-4.81-19.74c-14.1,4.82-15.17,6.9-12.03,25.51c-9.41-9.1-17.85-9.86-26.21,0.67 C2199.8,2517.72,2199.67,2508.62,2186.84,2502.61z"></path> <path class="st6" d="M1931.56,2474.86c4.1,17.19,12.2,26.41,31.91,20.25c-17.01,10.25-18.65,21.88-7.75,37.25 c-14.74-12.61-27.33-12.86-39.07,3.95c7.94-17.73,4.75-29.85-15-36.39C1921.84,2502.85,1930.25,2493.76,1931.56,2474.86z"></path> <path class="st6" d="M1996.21,2442.93c-13.29-11.62-24.92-9.55-36.91,4.6c9.36-18.12,2.33-28.08-16.83-34.12 c10.61-1.49,19.13-0.33,23.85-4.03c4.42-3.46,4.82-12.06,8.05-21.52c3.36,18.9,12.86,26.24,29.83,21.21 c-4.83,4.95-12.28,9.24-13.74,15.04C1989.08,2429.56,1994.04,2436.59,1996.21,2442.93z"></path> <path class="st6" d="M1861.28,2462.84c4.51-17.83-2.49-27.42-21.26-30.51c17.17-2.37,28.35-8.52,23.87-29.03 c7.28,16.04,17.13,23.47,34.92,13.97c-14.26,12.4-15.03,24.11-3.21,36.84c-6.59-2.07-13.89-6.9-19.57-5.44 C1870.28,2450.16,1866.13,2457.86,1861.28,2462.84z"></path> <path class="st6" d="M1768.8,2486.56c6.09-18.25-0.64-27.84-20.79-30.94c9.72-3.56,18.14-4.23,22.01-8.78 c3.59-4.22,2.33-12.58,3.37-20.32c4.86,6.41,8.02,14.63,13.47,16.64c5.62,2.07,13.46-1.91,21.16-3.4 c-4.57,6.14-11.57,11.55-12.26,17.67c-0.65,5.73,5.4,12.21,8.62,19.97C1788.45,2465.25,1777.9,2471.58,1768.8,2486.56z"></path> <path class="st6" d="M1835.11,2500.48c4.74,17.39,16.09,19.71,33,13.15c-5.99,7.47-12.66,12.24-13.54,17.91 c-0.82,5.27,4.52,11.49,8.61,20.52c-14.59-11.24-26.05-11.81-35.6,4.72c4.77-16.67,0.75-27.22-15.76-31.53 c6.26-1.77,14.49-1.73,18.25-5.8C1833.98,2515.19,1833.6,2506.97,1835.11,2500.48z"></path> <path class="st6" d="M2101.71,2403.38c-12.09,15.84-12.09,15.84-5.3,34.88c-12.96-9.69-24.26-11.71-34.34,3.06 c5.89-15.93,1.02-25.5-14.65-31.03c17.42,0.66,25.15-7.13,25.01-24.21C2077.29,2400.91,2084.76,2409.89,2101.71,2403.38z"></path> <path class="st6" d="M2103.96,2494.48c16.25,1.55,26.05-3.3,25.69-21.99c4.59,16.21,13,22.94,29.75,17.28 c-14.41,8.84-17.34,19.39-7.94,33.74c-12.98-12.12-23.7-9.31-34.45,2.93C2125,2510.47,2119.41,2500.96,2103.96,2494.48z"></path> <path class="st6" d="M1941.96,2338.9c-13,12.67-13,12.67-7.77,33.04c-12.17-10.6-22.82-11.81-32.63,2.97 c5.06-14.71,3.5-25.61-13.34-30.97c16.1,0.53,24.65-5.94,23.83-23.94c4.74,8.09,6.7,15.47,11.42,18.32 C1927.89,2341,1935.22,2338.9,1941.96,2338.9z"></path> <path class="st6" d="M2144.28,2409.97c14.26-0.08,22.94-4.86,21.32-22.14c10.98,17.42,10.98,17.42,28.04,18.72 c-12.97,7.62-15.19,16.77-6.6,28.89c-11.57-8.74-21.65-10.44-31.04,3.32C2160.36,2425.66,2159.95,2415.26,2144.28,2409.97z"></path> <path class="st6" d="M2101.6,2343c15.11,3.08,21.65-3.36,23.94-17.63c2.84,14.26,10.68,19.81,25.47,16.96 c-13.66,7.09-17.3,16.49-9.19,30.06c-10.16-9.7-19.72-12.59-30.76-0.45C2117.66,2358.61,2114.84,2349.63,2101.6,2343z"></path> <path class="st6" d="M2037.26,2361.97c-11.67-9.43-20.49-6.61-29.4,3.98c5.24-13.87,1.42-22.44-12.51-27.2 c14.3,0.19,21.94-5.42,21.95-20.69c4.62,13.64,12.09,20.36,27.15,14.38C2033.73,2340.64,2027.77,2348.86,2037.26,2361.97z"></path> <path class="st6" d="M1931.82,2269.04c15.17,1.1,22.66-4.86,23.07-20.48c4.24,12.09,10.22,20.08,25.33,15.52 c-11.03,8.51-13.62,17.59-5.1,29.32c-10.41-6.82-19.83-10.53-29.22,2.43C1949.72,2281.86,1945.86,2273.19,1931.82,2269.04z"></path> <path class="st6" d="M1842.4,2299.72c5.43-14.75-1.49-21.26-13.23-26.62c15.49,1,21.29-6.44,21.33-20.83 c5.21,11.6,10.66,21.62,26.78,13.93c-11.83,8.96-14.22,18.47-5.35,30.49C1861.36,2290.73,1851.69,2285.09,1842.4,2299.72z"></path> <path class="st6" d="M1811.76,2381.98c2.52-13.1-0.44-21.6-14.68-22.78c0.96-1.11,18.45-21.25,18.45-21.25 c10.03,10.2,10.03,10.2,26.85,8.88c-12.5,8.99-11.33,18.12-2.24,28.26C1827.88,2367.66,1818.94,2369.42,1811.76,2381.98z"></path> <path class="st6" d="M2031.38,2470c3.71,14.43,11.72,19.31,26.07,14.15c-9.98,7.82-16.52,15.67-6.26,28.12 c-9.87-4.63-19.08-9.45-27.56,3.23c3.39-13.36-0.95-21.11-14.05-24.82C2023.97,2491.05,2031.46,2485.09,2031.38,2470z"></path> <path class="st6" d="M2088.66,2278.37c-9.38,6.45-14.58,13.01-8.27,24.18c-3.95-2.22-7.91-6.21-11.83-6.17 c-4.13,0.04-8.23,3.92-14.48,7.27c7.02-11.39,4.38-19.1-7.54-24.12c16.23-3.31,16.23-3.31,22.04-16.89 C2070.54,2275.01,2076.44,2280.69,2088.66,2278.37z"></path> <path class="st6" d="M2173.87,2294.16c-2.59,5.47-5.18,10.94-8.04,16.98c-0.44-0.22-3.15-2.66-5.82-2.62 c-2.86,0.04-5.68,2.41-7.47,3.26c-1.36-5.01-2.77-10.21-4.17-15.36c3.18-2.63,7.74-6.4,12.09-9.99 C2161.65,2292.7,2165.97,2297.25,2173.87,2294.16z"></path> <path class="st6" d="M2316.38,3113.66c16.89,0.75,32.74,1.36,48.58,2.24c2.34,0.13,4.6,1.56,6.9,2.39 c-1.13,2.49-1.71,5.53-3.53,7.33c-2.71,2.68-6.1,4.87-9.54,6.6c-39.75,20-80.2,38.1-125.39,41.6c-7.65,0.59-15.56,0.28-23.12-0.98 c-17.38-2.88-23.59-18.92-12.23-32.62c4.52-5.45,11.29-10.48,17.99-12.42c17-4.93,34.39-9.09,51.9-11.52 C2284.25,3114.02,2300.9,3114.4,2316.38,3113.66z"></path> </g> </svg> 